<?xml version="1.0" encoding="UTF-8"?>
<svg xmlns="http://www.w3.org/2000/svg" width="700" height="400" viewBox="0 0 700 400">
<rect x="43" y="7" width="582" height="345" fill="#ffffff"/>
<defs><clipPath id="rbcPlot" clipPathUnits="userSpaceOnUse"><rect x="43" y="7" width="582" height="345"/></clipPath></defs>
<g clip-path="url(#rbcPlot)">
<polyline points="122.375,8 122.375,350 " fill="none" stroke="#a3a3a3" stroke-width="1" stroke-linecap="butt" stroke-linejoin="miter" stroke-dasharray="1"/>
<polyline points="52,8 52,350 " fill="none" stroke="#a3a3a3" stroke-width="1" stroke-linecap="butt" stroke-linejoin="miter" stroke-dasharray="1"/>
<polyline points="263.125,8 263.125,350 " fill="none" stroke="#a3a3a3" stroke-width="1" stroke-linecap="butt" stroke-linejoin="miter" stroke-dasharray="1"/>
<polyline points="192.75,8 192.75,350 " fill="none" stroke="#a3a3a3" stroke-width="1" stroke-linecap="butt" stroke-linejoin="miter" stroke-dasharray="1"/>
<polyline points="403.875,8 403.875,350 " fill="none" stroke="#a3a3a3" stroke-width="1" stroke-linecap="butt" stroke-linejoin="miter" stroke-dasharray="1"/>
<polyline points="333.5,8 333.5,350 " fill="none" stroke="#a3a3a3" stroke-width="1" stroke-linecap="butt" stroke-linejoin="miter" stroke-dasharray="1"/>
<polyline points="544.625,8 544.625,350 " fill="none" stroke="#a3a3a3" stroke-width="1" stroke-linecap="butt" stroke-linejoin="miter" stroke-dasharray="1"/>
<polyline points="474.25,8 474.25,350 " fill="none" stroke="#a3a3a3" stroke-width="1" stroke-linecap="butt" stroke-linejoin="miter" stroke-dasharray="1"/>
<polyline points="615,8 615,350 " fill="none" stroke="#a3a3a3" stroke-width="1" stroke-linecap="butt" stroke-linejoin="miter" stroke-dasharray="1"/>
<polyline points="44,287.673 623,287.673 " fill="none" stroke="#a3a3a3" stroke-width="1" stroke-linecap="butt" stroke-linejoin="miter" stroke-dasharray="1"/>
<polyline points="44,179.001 623,179.001 " fill="none" stroke="#a3a3a3" stroke-width="1" stroke-linecap="butt" stroke-linejoin="miter" stroke-dasharray="1"/>
<polyline points="44,233.337 623,233.337 " fill="none" stroke="#a3a3a3" stroke-width="1" stroke-linecap="butt" stroke-linejoin="miter" stroke-dasharray="1"/>
<polyline points="44,70.3288 623,70.3288 " fill="none" stroke="#a3a3a3" stroke-width="1" stroke-linecap="butt" stroke-linejoin="miter" stroke-dasharray="1"/>
<polyline points="44,124.665 623,124.665 " fill="none" stroke="#a3a3a3" stroke-width="1" stroke-linecap="butt" stroke-linejoin="miter" stroke-dasharray="1"/>
<polyline points="52,314.841 52.007,314.095 52.0141,313.352 52.0281,311.87 52.0563,308.926 52.1126,303.126 52.2252,291.865 52.4504,270.633 52.6142,256.222 52.7492,244.957 52.8356,238.034 52.9295,230.749 52.9803,226.905 53.0247,223.604 53.0671,220.502 53.1118,217.278 53.1876,211.932 53.3248,202.603 53.5994,185.236 54.0121,162.062 54.3072,147.456 54.5199,137.86 54.6232,133.462 54.7938,126.547 54.86,123.976 54.9291,121.358 55.0096,118.386 55.148,113.473 55.4115,104.749 55.705,95.9368 56.0187,87.4757 56.2604,81.5757 56.4342,77.6398 56.5203,75.782 56.577,74.588 56.6199,73.7024 56.6576,72.935 56.6936,72.2112 56.7347,71.3957 56.7979,70.1665 56.9223,67.8235 57.1711,63.4329 57.4959,58.2487 57.8718,52.9417 58.1095,49.9397 58.2743,48.0043 58.3571,47.0763 58.4125,46.47 58.4591,45.9693 58.5013,45.5231 58.5491,45.0265 58.6255,44.2489 58.7718,42.817 59.0645,40.1637 59.4195,37.2892 59.7159,35.1521 59.9352,33.7119 60.0912,32.7548 60.1694,32.2953 60.2232,31.9863 60.2683,31.7321 60.3097,31.5026 60.3564,31.2473 60.4309,30.8486 60.5741,30.1118 60.7417,29.2949 60.9907,28.1667 61.3716,26.6205 61.6389,25.6541 61.827,25.0282 61.9199,24.7344 61.979,24.5527 62.0231,24.4196 62.0614,24.3057 62.0981,24.1982 62.1397,24.0777 62.2041,23.8947 62.3304,23.548 62.5829,22.899 62.8652,22.2383 63.2988,21.3424 63.5348,20.9105 63.6936,20.6402 63.7742,20.5089 63.8287,20.4222 63.8745,20.3507 63.9163,20.2865 63.9634,20.2152 64.0389,20.1035 64.1834,19.8977 64.4304,19.5692 64.7057,19.2352 65.0918,18.8179 65.3285,18.5892 65.4919,18.4424 65.5741,18.3719 65.6293,18.3257 65.6758,18.2875 65.7178,18.2534 65.7654,18.2155 65.8416,18.1562 65.9875,18.0469 66.2455,17.8668 66.5261,17.6885 66.9007,17.4763 67.1345,17.3577 67.2964,17.2812 67.3778,17.2445 67.4327,17.2203 67.4789,17.2003 67.5208,17.1824 67.5683,17.1626 67.6441,17.1315 67.7895,17.0741 68.0802,16.9679 68.3455,16.8799 68.7044,16.7733 68.9369,16.7112 69.099,16.6709 69.1804,16.6516 69.2354,16.6388 69.2815,16.6283 69.3235,16.6189 69.3709,16.6085 69.4468,16.5921 69.5921,16.5619 69.8829,16.506 70.155,16.4586 70.5108,16.403 70.7421,16.3706 70.9034,16.3495 70.9844,16.3394 71.0393,16.3327 71.0853,16.3272 71.1272,16.3222 71.1745,16.3167 71.2502,16.3081 71.3953,16.2923 71.6855,16.2629 71.9591,16.2378 72.3149,16.2086 72.5461,16.1915 72.7074,16.1804 72.7884,16.1751 72.8432,16.1716 72.8892,16.1687 72.9311,16.1661 72.9784,16.1632 73.0541,16.1587 73.1992,16.1504 73.4893,16.1349 73.7625,16.1217 74.1185,16.1063 74.3498,16.0974 74.5112,16.0915 74.5922,16.0887 74.647,16.0869 74.693,16.0853 74.7349,16.084 74.7823,16.0824 74.858,16.0801 75.003,16.0757 75.2932,16.0676 75.5663,16.0606 75.9223,16.0525 76.1537,16.0478 76.315,16.0447 76.396,16.0433 76.4508,16.0423 76.4969,16.0415 76.5387,16.0408 76.5861,16.04 76.6618,16.0387 76.8069,16.0364 77.0971,16.0321 77.3702,16.0285 77.7262,16.0242 77.9575,16.0217 78.1188,16.0201 78.1998,16.0193 78.2546,16.0188 78.3007,16.0184 78.3426,16.018 78.3899,16.0176 78.4656,16.017 78.6107,16.0157 78.9009,16.0135 79.174,16.0116 79.53,16.0093 79.7613,16.008 79.9226,16.0072 80.0036,16.0068 80.0585,16.0065 80.1045,16.0063 80.1464,16.0061 80.1937,16.0058 80.2694,16.0055 80.4145,16.0049 80.7047,16.0037 80.9778,16.0027 81.3338,16.0015 81.5651,16.0008 81.7265,16.0004 81.8075,16.0001 81.8623,16 81.9083,19.5802 81.9502,23.7597 81.9976,28.7011 82.0733,36.4585 82.2184,50.3578 82.5086,74.4167 82.7817,93.039 83.1376,112.545 83.3689,122.757 83.5302,128.901 83.6112,131.714 83.6661,133.523 83.7121,134.988 83.754,136.278 83.8013,137.692 83.877,139.857 84.0222,143.699 84.3124,150.32 84.5855,163.987 84.9414,183.244 85.1727,195.42 85.334,203.518 85.415,207.439 85.4699,210.033 85.5159,212.174 85.5578,214.091 85.6051,216.225 85.6808,219.564 85.8259,225.719 86.1162,237.13 86.3893,246.854 86.7452,258.201 86.9765,264.834 87.1378,269.14 87.2188,271.209 87.2736,272.575 87.3197,273.702 87.3615,274.71 87.4089,275.833 87.4846,277.589 87.6297,280.828 87.92,286.831 88.1931,291.947 88.549,297.917 88.7803,301.406 88.9416,303.672 89.0226,304.761 89.0774,305.479 89.1235,306.072 89.1653,306.602 89.2127,307.193 89.2884,308.117 89.4335,309.821 89.7237,312.98 89.9968,315.671 90.3528,318.812 90.5841,320.647 90.7454,321.839 90.8264,322.412 90.8812,322.79 90.9272,323.102 90.9691,323.381 91.0165,323.692 91.0922,324.178 91.2373,325.074 91.5275,326.736 91.8006,328.152 92.1566,329.805 92.3878,330.77 92.5491,331.397 92.6302,331.699 92.685,331.898 92.731,332.062 92.7729,332.209 92.8202,332.372 92.896,332.628 93.0411,333.099 93.3313,333.974 93.6044,334.719 93.9603,335.588 94.1916,336.096 94.3529,336.426 94.4339,336.585 94.4888,336.689 94.5348,336.775 94.5767,336.853 94.624,336.939 94.6997,337.073 94.8448,337.321 95.1351,337.781 95.4082,338.173 95.7641,338.631 95.9954,338.898 96.1567,339.072 96.2377,339.155 96.2925,339.21 96.3386,339.255 96.3804,339.296 96.4278,339.341 96.5035,339.412 96.6486,339.543 96.9389,339.785 97.212,339.991 97.5679,340.231 97.7992,340.372 97.9605,340.463 98.0415,340.507 98.0963,340.536 98.1423,340.56 98.1842,340.582 98.2316,340.605 98.3073,340.643 98.4524,340.711 98.7426,340.839 99.0157,340.947 99.3717,341.074 99.603,341.148 99.7643,341.196 99.8453,341.219 99.9001,341.234 99.9461,341.247 99.988,341.258 100.035,341.27 100.111,341.29 100.256,341.326 100.546,341.393 100.82,341.45 101.175,341.517 101.407,341.556 101.568,341.581 101.649,341.593 101.704,341.601 101.75,341.608 101.792,341.614 101.839,341.62 101.915,341.631 102.06,341.65 102.35,341.685 102.623,341.715 102.979,341.75 103.211,341.77 103.372,341.784 103.453,341.79 103.508,341.794 103.554,341.798 103.596,341.801 103.643,341.804 103.719,341.81 103.864,341.82 104.154,341.838 104.427,341.854 104.783,341.872 105.014,341.883 105.176,341.89 105.257,341.894 105.311,341.896 105.357,341.898 105.399,341.899 105.447,341.901 105.522,341.904 105.668,341.909 105.958,341.919 106.231,341.927 106.587,341.937 106.818,341.943 106.979,341.946 107.06,341.948 107.115,341.949 107.161,341.95 107.203,341.951 107.25,341.952 107.326,341.954 107.471,341.956 107.762,341.961 108.035,341.966 108.391,341.971 108.622,341.974 108.783,341.976 108.864,341.977 108.919,341.977 108.965,341.978 109.007,341.978 109.054,341.979 109.13,341.98 109.275,341.981 109.565,341.984 109.838,341.986 110.194,341.989 110.426,341.99 110.587,341.991 110.668,341.992 110.723,341.992 110.769,341.992 110.811,341.993 110.858,341.993 110.934,341.993 111.079,341.994 111.369,341.996 111.642,341.997 111.998,341.998 112.229,341.999 112.391,342 112.472,342 112.527,342 112.573,338.42 112.614,334.241 112.662,329.299 112.738,321.542 112.883,307.643 113.173,283.584 113.446,264.959 113.802,245.455 114.033,235.243 114.194,229.1 114.275,226.287 114.33,224.478 114.376,223.014 114.418,221.723 114.466,220.309 114.541,218.144 114.686,214.302 114.977,207.681 115.25,194.014 115.606,174.758 115.837,162.581 115.998,154.483 116.079,150.562 116.134,147.968 116.18,145.828 116.222,143.91 116.269,141.777 116.345,138.438 116.49,132.283 116.78,120.871 117.054,111.147 117.409,99.8005 117.641,93.1678 117.802,88.8613 117.883,86.7924 117.938,85.4265 117.984,84.3001 118.026,83.2913 118.073,82.1687 118.149,80.4122 118.294,77.174 118.584,71.1701 118.857,66.0543 119.213,60.0847 119.445,56.5952 119.606,54.3295 119.687,53.241 119.742,52.5224 119.788,51.9298 119.83,51.3991 119.877,50.8085 119.953,49.8843 120.098,48.1807 120.388,45.022 120.661,42.3305 121.017,39.1899 121.248,37.354 121.41,36.162 121.491,35.5894 121.545,35.2113 121.591,34.8995 121.633,34.6203 121.681,34.3096 121.756,33.8234 121.902,32.9271 122.192,31.2653 122.465,29.8493 122.821,28.197 123.052,27.2311 123.213,26.604 123.294,26.3027 123.349,26.1038 123.395,25.9398 123.437,25.7929 123.484,25.6294 123.56,25.3736 123.705,24.9021 123.996,24.0278 124.269,23.2828 124.625,22.4135 124.856,21.9054 125.017,21.5754 125.098,21.4169 125.153,21.3123 125.199,21.226 125.241,21.1487 125.288,21.0627 125.364,20.9281 125.509,20.68 125.799,20.2201 126.072,19.8281 126.428,19.3708 126.66,19.1034 126.821,18.9299 126.902,18.8465 126.957,18.7914 127.003,18.746 127.045,18.7054 127.092,18.6601 127.168,18.5893 127.313,18.4588 127.603,18.2168 127.876,18.0106 128.232,17.77 128.463,17.6293 128.625,17.538 128.706,17.4941 128.761,17.4652 128.807,17.4413 128.848,17.4199 128.896,17.3961 128.972,17.3588 129.117,17.2902 129.407,17.1629 129.68,17.0544 130.036,16.9278 130.267,16.8538 130.428,16.8057 130.509,16.7827 130.564,16.7674 130.61,16.7549 130.652,16.7436 130.7,16.7311 130.775,16.7115 130.92,16.6754 131.211,16.6084 131.484,16.5513 131.84,16.4847 132.071,16.4458 132.232,16.4205 132.313,16.4083 132.368,16.4003 132.414,16.3937 132.456,16.3878 132.503,16.3812 132.579,16.3709 132.724,16.3519 133.014,16.3167 133.288,16.2866 133.643,16.2516 133.875,16.2311 134.036,16.2178 134.117,16.2114 134.172,16.2072 134.218,16.2037 134.26,16.2006 134.307,16.1971 134.383,16.1917 134.528,16.1817 134.818,16.1632 135.091,16.1474 135.447,16.1289 135.679,16.1182 135.84,16.1112 135.921,16.1078 135.976,16.1056 136.022,16.1038 136.064,16.1021 136.111,16.1003 136.187,16.0974 136.332,16.0922 136.622,16.0824 136.895,16.0741 137.251,16.0644 137.482,16.0588 137.644,16.0551 137.725,16.0533 137.779,16.0521 137.825,16.0512 137.867,16.0503 137.915,16.0494 137.99,16.0479 138.136,16.0451 138.426,16.04 138.699,16.0356 139.055,16.0305 139.286,16.0275 139.447,16.0256 139.528,16.0246 139.583,16.024 139.629,16.0235 139.671,16.0231 139.718,16.0226 139.794,16.0218 139.939,16.0203 140.23,16.0176 140.503,16.0153 140.859,16.0126 141.09,16.0111 141.251,16.01 141.332,16.0095 141.387,16.0092 141.433,16.009 141.475,16.0087 141.522,16.0084 141.598,16.008 141.743,16.0073 142.033,16.0058 142.306,16.0046 142.662,16.0032 142.894,16.0024 143.055,16.0019 143.136,16.0016 143.191,16.0014 143.237,19.5814 143.279,23.7608 143.326,28.7019 143.402,36.4594 143.547,50.3585 143.837,74.417 144.11,93.0424 144.466,112.546 144.697,122.758 144.859,128.901 144.94,131.714 144.995,133.523 145.041,134.988 145.082,136.279 145.13,137.693 145.206,139.857 145.351,143.699 145.641,150.321 145.914,163.987 146.27,183.244 146.501,195.42 146.662,203.518 146.743,207.439 146.798,210.033 146.844,212.174 146.886,214.091 146.934,216.225 147.009,219.564 147.154,225.719 147.445,237.13 147.718,246.854 148.074,258.201 148.305,264.834 148.466,269.14 148.547,271.209 148.602,272.575 148.648,273.701 148.69,274.71 148.737,275.833 148.813,277.589 148.958,280.827 149.248,286.831 149.522,291.947 149.877,297.917 150.109,301.406 150.27,303.672 150.351,304.76 150.406,305.479 150.452,306.072 150.494,306.602 150.541,307.193 150.617,308.117 150.762,309.821 151.052,312.979 151.325,315.671 151.681,318.812 151.913,320.647 152.074,321.839 152.155,322.412 152.21,322.79 152.256,323.102 152.298,323.381 152.345,323.692 152.421,324.178 152.566,325.074 152.856,326.736 153.129,328.152 153.485,329.804 153.716,330.77 153.878,331.397 153.959,331.699 154.013,331.898 154.059,332.062 154.101,332.209 154.149,332.372 154.224,332.628 154.37,333.099 154.66,333.974 154.933,334.719 155.289,335.588 155.52,336.096 155.681,336.426 155.762,336.585 155.817,336.689 155.863,336.775 155.905,336.853 155.952,336.939 156.028,337.073 156.173,337.321 156.464,337.781 156.737,338.173 157.093,338.631 157.324,338.898 157.485,339.072 157.566,339.155 157.621,339.21 157.667,339.255 157.709,339.296 157.756,339.341 157.832,339.412 157.977,339.543 158.267,339.785 158.54,339.991 158.896,340.231 159.128,340.372 159.289,340.463 159.37,340.507 159.425,340.536 159.471,340.56 159.513,340.582 159.56,340.605 159.636,340.643 159.781,340.711 160.071,340.839 160.344,340.947 160.7,341.074 160.931,341.148 161.093,341.196 161.174,341.219 161.229,341.234 161.275,341.247 161.316,341.258 161.364,341.27 161.44,341.29 161.585,341.326 161.875,341.393 162.148,341.45 162.504,341.517 162.735,341.556 162.896,341.581 162.978,341.593 163.032,341.601 163.078,341.608 163.12,341.614 163.168,341.62 163.243,341.631 163.388,341.65 163.679,341.685 163.952,341.715 164.308,341.75 164.539,341.77 164.7,341.784 164.781,341.79 164.836,341.794 164.882,341.798 164.924,341.801 164.971,341.804 165.047,341.81 165.192,341.82 165.482,341.838 165.756,341.854 166.111,341.872 166.343,341.883 166.504,341.89 166.585,341.894 166.64,341.896 166.686,341.898 166.728,341.899 166.775,341.901 166.851,341.904 166.996,341.909 167.286,341.919 167.559,341.927 167.915,341.937 168.147,341.943 168.308,341.946 168.389,341.948 168.444,341.949 168.49,341.95 168.532,341.951 168.579,341.952 168.655,341.954 168.8,341.956 169.09,341.961 169.363,341.966 169.719,341.971 169.95,341.974 170.112,341.976 170.193,341.977 170.247,341.977 170.293,341.978 170.335,341.978 170.383,341.979 170.458,341.98 170.604,341.981 170.894,341.984 171.167,341.986 171.523,341.989 171.754,341.99 171.915,341.991 171.996,341.992 172.051,341.992 172.097,341.992 172.139,341.993 172.186,341.993 172.262,341.993 172.407,341.994 172.698,341.996 172.971,341.997 173.327,341.998 173.558,341.999 173.719,342 173.8,342 173.855,342 173.901,338.42 173.943,334.241 173.99,329.299 174.066,321.542 174.211,307.643 174.501,283.584 174.774,264.959 175.13,245.455 175.362,235.243 175.523,229.1 175.604,226.287 175.659,224.478 175.705,223.014 175.747,221.723 175.794,220.309 175.87,218.144 176.015,214.302 176.305,207.681 176.578,194.014 176.934,174.758 177.165,162.581 177.327,154.483 177.408,150.562 177.463,147.968 177.509,145.828 177.55,143.91 177.598,141.777 177.674,138.438 177.819,132.283 178.109,120.871 178.382,111.147 178.738,99.8005 178.969,93.1678 179.13,88.8613 179.212,86.7924 179.266,85.4265 179.312,84.3001 179.354,83.2913 179.402,82.1687 179.477,80.4122 179.622,77.174 179.913,71.1701 180.186,66.0543 180.542,60.0847 180.773,56.5952 180.934,54.3295 181.015,53.241 181.07,52.5224 181.116,51.9298 181.158,51.3991 181.205,50.8085 181.281,49.8843 181.426,48.1807 181.716,45.022 181.99,42.3305 182.345,39.1899 182.577,37.354 182.738,36.162 182.819,35.5894 182.874,35.2113 182.92,34.8995 182.962,34.6203 183.009,34.3096 183.085,33.8234 183.23,32.9271 183.52,31.2653 183.793,29.8493 184.149,28.197 184.381,27.2311 184.542,26.604 184.623,26.3027 184.678,26.1038 184.724,25.9398 184.766,25.7929 184.813,25.6294 184.889,25.3736 185.034,24.9021 185.324,24.0278 185.597,23.2828 185.953,22.4135 186.184,21.9054 186.346,21.5754 186.427,21.4169 186.481,21.3123 186.527,21.226 186.569,21.1487 186.617,21.0627 186.692,20.9281 186.838,20.68 187.128,20.2201 187.401,19.8281 187.757,19.3708 187.988,19.1034 188.149,18.9299 188.23,18.8465 188.285,18.7914 188.331,18.746 188.373,18.7054 188.42,18.6601 188.496,18.5893 188.641,18.4588 188.932,18.2168 189.205,18.0106 189.561,17.77 189.792,17.6293 189.953,17.538 190.034,17.4941 190.089,17.4652 190.135,17.4413 190.177,17.4199 190.224,17.3961 190.3,17.3588 190.445,17.2902 190.735,17.1629 191.008,17.0544 191.364,16.9278 191.596,16.8538 191.757,16.8057 191.838,16.7827 191.893,16.7674 191.939,16.7549 191.981,16.7436 192.028,16.7311 192.104,16.7115 192.249,16.6754 192.539,16.6084 192.812,16.5513 193.168,16.4847 193.399,16.4458 193.561,16.4205 193.642,16.4083 193.697,16.4003 193.743,16.3937 193.784,16.3878 193.832,16.3812 193.908,16.3709 194.053,16.3519 194.343,16.3167 194.616,16.2866 194.972,16.2516 195.203,16.2311 195.364,16.2178 195.446,16.2114 195.5,16.2072 195.546,16.2037 195.588,16.2006 195.636,16.1971 195.711,16.1917 195.856,16.1817 196.147,16.1632 196.42,16.1474 196.776,16.1289 197.007,16.1182 197.168,16.1112 197.249,16.1078 197.304,16.1056 197.35,16.1038 197.392,16.1021 197.439,16.1003 197.515,16.0974 197.66,16.0922 197.95,16.0824 198.224,16.0741 198.579,16.0644 198.811,16.0588 198.972,16.0551 199.053,16.0533 199.108,16.0521 199.154,16.0512 199.196,16.0503 199.243,16.0494 199.319,16.0479 199.464,16.0451 199.754,16.04 200.027,16.0356 200.383,16.0305 200.615,16.0275 200.776,16.0256 200.857,16.0246 200.912,16.024 200.958,16.0235 201,16.0231 201.047,16.0226 201.123,16.0218 201.268,16.0203 201.558,16.0176 201.831,16.0153 202.187,16.0126 202.418,16.0111 202.58,16.01 202.661,16.0095 202.715,16.0092 202.761,16.009 202.803,16.0087 202.851,16.0084 202.926,16.008 203.072,16.0073 203.362,16.0058 203.635,16.0046 203.991,16.0032 204.222,16.0024 204.383,16.0019 204.464,16.0016 204.519,16.0014 204.565,19.5814 204.607,23.7608 204.654,28.7019 204.73,36.4594 204.875,50.3585 205.166,74.417 205.439,93.0424 205.795,112.546 206.026,122.758 206.187,128.901 206.268,131.714 206.323,133.523 206.369,134.988 206.411,136.279 206.458,137.693 206.534,139.857 206.679,143.699 206.969,150.321 207.242,163.987 207.598,183.244 207.83,195.42 207.991,203.518 208.072,207.439 208.127,210.033 208.173,212.174 208.215,214.091 208.262,216.225 208.338,219.564 208.483,225.719 208.773,237.13 209.046,246.854 209.402,258.201 209.633,264.834 209.795,269.14 209.876,271.209 209.931,272.575 209.977,273.701 210.018,274.71 210.066,275.833 210.142,277.589 210.287,280.827 210.577,286.831 210.85,291.947 211.206,297.917 211.437,301.406 211.599,303.672 211.68,304.76 211.734,305.479 211.78,306.072 211.822,306.602 211.87,307.193 211.945,308.117 212.09,309.821 212.381,312.979 212.654,315.671 213.01,318.812 213.241,320.647 213.402,321.839 213.483,322.412 213.538,322.79 213.584,323.102 213.626,323.381 213.673,323.692 213.749,324.178 213.894,325.074 214.184,326.736 214.458,328.152 214.813,329.804 215.045,330.77 215.206,331.397 215.287,331.699 215.342,331.898 215.388,332.062 215.43,332.209 215.477,332.372 215.553,332.628 215.698,333.099 215.988,333.974 216.261,334.719 216.617,335.588 216.849,336.096 217.01,336.426 217.091,336.585 217.146,336.689 217.192,336.775 217.234,336.853 217.281,336.939 217.357,337.073 217.502,337.321 217.792,337.781 218.065,338.173 218.421,338.631 218.652,338.898 218.814,339.072 218.895,339.155 218.949,339.21 218.995,339.255 219.037,339.296 219.085,339.341 219.16,339.412 219.306,339.543 219.596,339.785 219.869,339.991 220.225,340.231 220.456,340.372 220.617,340.463 220.698,340.507 220.753,340.536 220.799,340.56 220.841,340.582 220.888,340.605 220.964,340.643 221.109,340.711 221.4,340.839 221.673,340.947 222.029,341.074 222.26,341.148 222.421,341.196 222.502,341.219 222.557,341.234 222.603,341.247 222.645,341.258 222.692,341.27 222.768,341.29 222.913,341.326 223.203,341.393 223.476,341.45 223.832,341.517 224.064,341.556 224.225,341.581 224.306,341.593 224.361,341.601 224.407,341.608 224.449,341.614 224.496,341.62 224.572,341.631 224.717,341.65 225.007,341.685 225.28,341.715 225.636,341.75 225.867,341.77 226.029,341.784 226.11,341.79 226.165,341.794 226.211,341.798 226.252,341.801 226.3,341.804 226.376,341.81 226.521,341.82 226.811,341.838 227.084,341.854 227.44,341.872 227.671,341.883 227.833,341.89 227.914,341.894 227.968,341.896 228.014,341.898 228.056,341.899 228.104,341.901 228.179,341.904 228.324,341.909 228.615,341.919 228.888,341.927 229.244,341.937 229.475,341.943 229.636,341.946 229.717,341.948 229.772,341.949 229.818,341.95 229.86,341.951 229.907,341.952 229.983,341.954 230.128,341.956 230.418,341.961 230.692,341.966 231.047,341.971 231.279,341.974 231.44,341.976 231.521,341.977 231.576,341.977 231.622,341.978 231.664,341.978 231.711,341.979 231.787,341.98 231.932,341.981 232.222,341.984 232.495,341.986 232.851,341.989 233.083,341.99 233.244,341.991 233.325,341.992 233.38,341.992 233.426,341.992 233.468,341.993 233.515,341.993 233.591,341.993 233.736,341.994 234.026,341.996 234.299,341.997 234.655,341.998 234.886,341.999 235.048,342 235.129,342 235.183,342 235.229,338.42 235.271,334.241 235.319,329.299 235.394,321.542 235.54,307.643 235.83,283.584 236.103,264.959 236.459,245.455 236.69,235.243 236.851,229.1 236.932,226.287 236.987,224.478 237.033,223.014 237.075,221.723 237.122,220.309 237.198,218.144 237.343,214.302 237.634,207.681 237.907,194.014 238.263,174.758 238.494,162.581 238.655,154.483 238.736,150.562 238.791,147.968 238.837,145.828 238.879,143.91 238.926,141.777 239.002,138.438 239.147,132.283 239.437,120.871 239.71,111.147 240.066,99.8005 240.298,93.1678 240.459,88.8613 240.54,86.7924 240.595,85.4265 240.641,84.3001 240.683,83.2913 240.73,82.1687 240.806,80.4122 240.951,77.174 241.241,71.1701 241.514,66.0543 241.87,60.0847 242.101,56.5952 242.263,54.3295 242.344,53.241 242.399,52.5224 242.445,51.9298 242.486,51.3991 242.534,50.8085 242.61,49.8843 242.755,48.1807 243.045,45.022 243.318,42.3305 243.674,39.1899 243.905,37.354 244.067,36.162 244.148,35.5894 244.202,35.2113 244.248,34.8995 244.29,34.6203 244.338,34.3096 244.413,33.8234 244.558,32.9271 244.849,31.2653 245.122,29.8493 245.478,28.197 245.709,27.2311 245.87,26.604 245.951,26.3027 246.006,26.1038 246.052,25.9398 246.094,25.7929 246.141,25.6294 246.217,25.3736 246.362,24.9021 246.652,24.0278 246.926,23.2828 247.281,22.4135 247.513,21.9054 247.674,21.5754 247.755,21.4169 247.81,21.3123 247.856,21.226 247.898,21.1487 247.945,21.0627 248.021,20.9281 248.166,20.68 248.456,20.2201 248.729,19.8281 249.085,19.3708 249.317,19.1034 249.478,18.9299 249.559,18.8465 249.614,18.7914 249.66,18.746 249.702,18.7054 249.749,18.6601 249.825,18.5893 249.97,18.4588 250.26,18.2168 250.533,18.0106 250.889,17.77 251.12,17.6293 251.282,17.538 251.363,17.4941 251.417,17.4652 251.463,17.4413 251.505,17.4199 251.553,17.3961 251.628,17.3588 251.774,17.2902 252.064,17.1629 252.337,17.0544 252.693,16.9278 252.924,16.8538 253.085,16.8057 253.166,16.7827 253.221,16.7674 253.267,16.7549 253.309,16.7436 253.356,16.7311 253.432,16.7115 253.577,16.6754 253.868,16.6084 254.141,16.5513 254.497,16.4847 254.728,16.4458 254.889,16.4205 254.97,16.4083 255.025,16.4003 255.071,16.3937 255.113,16.3878 255.16,16.3812 255.236,16.3709 255.381,16.3519 255.671,16.3167 255.944,16.2866 256.3,16.2516 256.532,16.2311 256.693,16.2178 256.774,16.2114 256.829,16.2072 256.875,16.2037 256.917,16.2006 256.964,16.1971 257.04,16.1917 257.185,16.1817 257.475,16.1632 257.748,16.1474 258.104,16.1289 258.335,16.1182 258.497,16.1112 258.578,16.1078 258.633,16.1056 258.679,16.1038 258.72,16.1021 258.768,16.1003 258.844,16.0974 258.989,16.0922 259.279,16.0824 259.552,16.0741 259.908,16.0644 260.139,16.0588 260.301,16.0551 260.382,16.0533 260.436,16.0521 260.482,16.0512 260.524,16.0503 260.572,16.0494 260.647,16.0479 260.792,16.0451 261.083,16.04 261.356,16.0356 261.712,16.0305 261.943,16.0275 262.104,16.0256 262.185,16.0246 262.24,16.024 262.286,16.0235 262.328,16.0231 262.375,16.0226 262.451,16.0218 262.596,16.0203 262.886,16.0176 263.16,16.0153 263.515,16.0126 263.747,16.0111 263.908,16.01 263.989,16.0095 264.044,16.0092 264.09,16.009 264.132,16.0087 264.179,16.0084 264.255,16.008 264.4,16.0073 264.69,16.0058 264.963,16.0046 265.319,16.0032 265.551,16.0024 265.712,16.0019 265.793,16.0016 265.848,16.0014 265.894,19.5814 265.936,23.7608 265.983,28.7019 266.059,36.4594 266.204,50.3585 266.494,74.417 266.767,93.0424 267.123,112.546 267.354,122.758 267.516,128.901 267.597,131.714 267.651,133.523 267.697,134.988 267.739,136.279 267.787,137.693 267.862,139.857 268.008,143.699 268.298,150.321 268.571,163.987 268.927,183.244 269.158,195.42 269.319,203.518 269.4,207.439 269.455,210.033 269.501,212.174 269.543,214.091 269.59,216.225 269.666,219.564 269.811,225.719 270.102,237.13 270.375,246.854 270.731,258.201 270.962,264.834 271.123,269.14 271.204,271.209 271.259,272.575 271.305,273.701 271.347,274.71 271.394,275.833 271.47,277.589 271.615,280.827 271.905,286.831 272.178,291.947 272.534,297.917 272.766,301.406 272.927,303.672 273.008,304.76 273.063,305.479 273.109,306.072 273.151,306.602 273.198,307.193 273.274,308.117 273.419,309.821 273.709,312.979 273.982,315.671 274.338,318.812 274.569,320.647 274.731,321.839 274.812,322.412 274.867,322.79 274.913,323.102 274.954,323.381 275.002,323.692 275.078,324.178 275.223,325.074 275.513,326.736 275.786,328.152 276.142,329.804 276.373,330.77 276.535,331.397 276.616,331.699 276.67,331.898 276.716,332.062 276.758,332.209 276.806,332.372 276.881,332.628 277.026,333.099 277.317,333.974 277.59,334.719 277.946,335.588 278.177,336.096 278.338,336.426 278.419,336.585 278.474,336.689 278.52,336.775 278.562,336.853 278.609,336.939 278.685,337.073 278.83,337.321 279.12,337.781 279.394,338.173 279.749,338.631 279.981,338.898 280.142,339.072 280.223,339.155 280.278,339.21 280.324,339.255 280.366,339.296 280.413,339.341 280.489,339.412 280.634,339.543 280.924,339.785 281.197,339.991 281.553,340.231 281.785,340.372 281.946,340.463 282.027,340.507 282.082,340.536 282.128,340.56 282.17,340.582 282.217,340.605 282.293,340.643 282.438,340.711 282.728,340.839 283.001,340.947 283.357,341.074 283.588,341.148 283.75,341.196 283.831,341.219 283.885,341.234 283.931,341.247 283.973,341.258 284.021,341.27 284.096,341.29 284.242,341.326 284.532,341.393 284.805,341.45 285.161,341.517 285.392,341.556 285.553,341.581 285.634,341.593 285.689,341.601 285.735,341.608 285.777,341.614 285.824,341.62 285.9,341.631 286.045,341.65 286.336,341.685 286.609,341.715 286.965,341.75 287.196,341.77 287.357,341.784 287.438,341.79 287.493,341.794 287.539,341.798 287.581,341.801 287.628,341.804 287.704,341.81 287.849,341.82 288.139,341.838 288.412,341.854 288.768,341.872 289,341.883 289.161,341.89 289.242,341.894 289.297,341.896 289.343,341.898 289.385,341.899 289.432,341.901 289.508,341.904 289.653,341.909 289.943,341.919 290.216,341.927 290.572,341.937 290.803,341.943 290.965,341.946 291.046,341.948 291.101,341.949 291.147,341.95 291.188,341.951 291.236,341.952 291.312,341.954 291.457,341.956 291.747,341.961 292.02,341.966 292.376,341.971 292.607,341.974 292.769,341.976 292.85,341.977 292.904,341.977 292.95,341.978 292.992,341.978 293.04,341.979 293.115,341.98 293.26,341.981 293.551,341.984 293.824,341.986 294.18,341.989 294.411,341.99 294.572,341.991 294.653,341.992 294.708,341.992 294.754,341.992 294.796,341.993 294.843,341.993 294.919,341.993 295.064,341.994 295.354,341.996 295.628,341.997 295.983,341.998 296.215,341.999 296.376,342 296.457,342 296.512,342 296.558,338.42 296.6,334.241 296.647,329.299 296.723,321.542 296.868,307.643 297.158,283.584 297.431,264.959 297.787,245.455 298.019,235.243 298.18,229.1 298.261,226.287 298.316,224.478 298.362,223.014 298.404,221.723 298.451,220.309 298.527,218.144 298.672,214.302 298.962,207.681 299.235,194.014 299.591,174.758 299.822,162.581 299.984,154.483 300.065,150.562 300.119,147.968 300.165,145.828 300.207,143.91 300.255,141.777 300.33,138.438 300.476,132.283 300.766,120.871 301.039,111.147 301.395,99.8005 301.626,93.1678 301.787,88.8613 301.868,86.7924 301.923,85.4265 301.969,84.3001 302.011,83.2913 302.058,82.1687 302.134,80.4122 302.279,77.174 302.57,71.1701 302.843,66.0543 303.199,60.0847 303.43,56.5952 303.591,54.3295 303.672,53.241 303.727,52.5224 303.773,51.9298 303.815,51.3991 303.862,50.8085 303.938,49.8843 304.083,48.1807 304.373,45.022 304.646,42.3305 305.002,39.1899 305.234,37.354 305.395,36.162 305.476,35.5894 305.531,35.2113 305.577,34.8995 305.619,34.6203 305.666,34.3096 305.742,33.8234 305.887,32.9271 306.177,31.2653 306.45,29.8493 306.806,28.197 307.037,27.2311 307.199,26.604 307.28,26.3027 307.335,26.1038 307.381,25.9398 307.422,25.7929 307.47,25.6294 307.546,25.3736 307.691,24.9021 307.981,24.0278 308.254,23.2828 308.61,22.4135 308.841,21.9054 309.003,21.5754 309.084,21.4169 309.138,21.3123 309.184,21.226 309.226,21.1487 309.274,21.0627 309.349,20.9281 309.494,20.68 309.785,20.2201 310.058,19.8281 310.414,19.3708 310.645,19.1034 310.806,18.9299 310.887,18.8465 310.942,18.7914 310.988,18.746 311.03,18.7054 311.077,18.6601 311.153,18.5893 311.298,18.4588 311.588,18.2168 311.862,18.0106 312.217,17.77 312.449,17.6293 312.61,17.538 312.691,17.4941 312.746,17.4652 312.792,17.4413 312.834,17.4199 312.881,17.3961 312.957,17.3588 313.102,17.2902 313.392,17.1629 313.665,17.0544 314.021,16.9278 314.253,16.8538 314.414,16.8057 314.495,16.7827 314.55,16.7674 314.596,16.7549 314.638,16.7436 314.685,16.7311 314.761,16.7115 314.906,16.6754 315.196,16.6084 315.469,16.5513 315.825,16.4847 316.056,16.4458 316.218,16.4205 316.299,16.4083 316.353,16.4003 316.399,16.3937 316.441,16.3878 316.489,16.3812 316.564,16.3709 316.71,16.3519 317,16.3167 317.273,16.2866 317.629,16.2516 317.86,16.2311 318.021,16.2178 318.102,16.2114 318.157,16.2072 318.203,16.2037 318.245,16.2006 318.292,16.1971 318.368,16.1917 318.513,16.1817 318.804,16.1632 319.077,16.1474 319.433,16.1289 319.664,16.1182 319.825,16.1112 319.906,16.1078 319.961,16.1056 320.007,16.1038 320.049,16.1021 320.096,16.1003 320.172,16.0974 320.317,16.0922 320.607,16.0824 320.88,16.0741 321.236,16.0644 321.468,16.0588 321.629,16.0551 321.71,16.0533 321.765,16.0521 321.811,16.0512 321.853,16.0503 321.9,16.0494 321.976,16.0479 322.121,16.0451 322.411,16.04 322.684,16.0356 323.04,16.0305 323.271,16.0275 323.433,16.0256 323.514,16.0246 323.569,16.024 323.615,16.0235 323.656,16.0231 323.704,16.0226 323.78,16.0218 323.925,16.0203 324.215,16.0176 324.488,16.0153 324.844,16.0126 325.075,16.0111 325.237,16.01 325.318,16.0095 325.372,16.0092 325.418,16.009 325.46,16.0087 325.508,16.0084 325.583,16.008 325.728,16.0073 326.019,16.0058 326.292,16.0046 326.648,16.0032 326.879,16.0024 327.04,16.0019 327.121,16.0016 327.176,16.0014 327.222,19.5814 327.264,23.7608 327.311,28.7019 327.387,36.4594 327.532,50.3585 327.822,74.417 328.096,93.0424 328.451,112.546 328.683,122.758 328.844,128.901 328.925,131.714 328.98,133.523 329.026,134.988 329.068,136.279 329.115,137.693 329.191,139.857 329.336,143.699 329.626,150.321 329.899,163.987 330.255,183.244 330.487,195.42 330.648,203.518 330.729,207.439 330.784,210.033 330.83,212.174 330.872,214.091 330.919,216.225 330.995,219.564 331.14,225.719 331.43,237.13 331.703,246.854 332.059,258.201 332.29,264.834 332.452,269.14 332.533,271.209 332.587,272.575 332.633,273.701 332.675,274.71 332.723,275.833 332.798,277.589 332.944,280.827 333.234,286.831 333.507,291.947 333.863,297.917 334.094,301.406 334.255,303.672 334.336,304.76 334.391,305.479 334.437,306.072 334.479,306.602 334.526,307.193 334.602,308.117 334.747,309.821 335.038,312.979 335.311,315.671 335.667,318.812 335.898,320.647 336.059,321.839 336.14,322.412 336.195,322.79 336.241,323.102 336.283,323.381 336.33,323.692 336.406,324.178 336.551,325.074 336.841,326.736 337.114,328.152 337.47,329.804 337.702,330.77 337.863,331.397 337.944,331.699 337.999,331.898 338.045,332.062 338.087,332.209 338.134,332.372 338.21,332.628 338.355,333.099 338.645,333.974 338.918,334.719 339.274,335.588 339.505,336.096 339.667,336.426 339.748,336.585 339.803,336.689 339.849,336.775 339.89,336.853 339.938,336.939 340.014,337.073 340.159,337.321 340.449,337.781 340.722,338.173 341.078,338.631 341.309,338.898 341.471,339.072 341.552,339.155 341.606,339.21 341.652,339.255 341.694,339.296 341.742,339.341 341.817,339.412 341.962,339.543 342.253,339.785 342.526,339.991 342.882,340.231 343.113,340.372 343.274,340.463 343.355,340.507 343.41,340.536 343.456,340.56 343.498,340.582 343.545,340.605 343.621,340.643 343.766,340.711 344.056,340.839 344.33,340.947 344.685,341.074 344.917,341.148 345.078,341.196 345.159,341.219 345.214,341.234 345.26,341.247 345.302,341.258 345.349,341.27 345.425,341.29 345.57,341.326 345.86,341.393 346.133,341.45 346.489,341.517 346.721,341.556 346.882,341.581 346.963,341.593 347.018,341.601 347.064,341.608 347.106,341.614 347.153,341.62 347.229,341.631 347.374,341.65 347.664,341.685 347.937,341.715 348.293,341.75 348.524,341.77 348.686,341.784 348.767,341.79 348.821,341.794 348.867,341.798 348.909,341.801 348.957,341.804 349.032,341.81 349.178,341.82 349.468,341.838 349.741,341.854 350.097,341.872 350.328,341.883 350.489,341.89 350.57,341.894 350.625,341.896 350.671,341.898 350.713,341.899 350.76,341.901 350.836,341.904 350.981,341.909 351.272,341.919 351.545,341.927 351.901,341.937 352.132,341.943 352.293,341.946 352.374,341.948 352.429,341.949 352.475,341.95 352.517,341.951 352.564,341.952 352.64,341.954 352.785,341.956 353.075,341.961 353.348,341.966 353.704,341.971 353.936,341.974 354.097,341.976 354.178,341.977 354.233,341.977 354.279,341.978 354.321,341.978 354.368,341.979 354.444,341.98 354.589,341.981 354.879,341.984 355.152,341.986 355.508,341.989 355.739,341.99 355.901,341.991 355.982,341.992 356.037,341.992 356.083,341.992 356.124,341.993 356.172,341.993 356.248,341.993 356.393,341.994 356.683,341.996 356.956,341.997 357.312,341.998 357.543,341.999 357.705,342 357.786,342 357.84,342 357.886,338.42 357.928,334.241 357.976,329.299 358.051,321.542 358.196,307.643 358.487,283.584 358.76,264.959 359.116,245.455 359.347,235.243 359.508,229.1 359.589,226.287 359.644,224.478 359.69,223.014 359.732,221.723 359.779,220.309 359.855,218.144 360,214.302 360.29,207.681 360.564,194.014 360.919,174.758 361.151,162.581 361.312,154.483 361.393,150.562 361.448,147.968 361.494,145.828 361.536,143.91 361.583,141.777 361.659,138.438 361.804,132.283 362.094,120.871 362.367,111.147 362.723,99.8005 362.955,93.1678 363.116,88.8613 363.197,86.7924 363.252,85.4265 363.298,84.3001 363.34,83.2913 363.387,82.1687 363.463,80.4122 363.608,77.174 363.898,71.1701 364.171,66.0543 364.527,60.0847 364.758,56.5952 364.92,54.3295 365.001,53.241 365.055,52.5224 365.101,51.9298 365.143,51.3991 365.191,50.8085 365.266,49.8843 365.412,48.1807 365.702,45.022 365.975,42.3305 366.331,39.1899 366.562,37.354 366.723,36.162 366.804,35.5894 366.859,35.2113 366.905,34.8995 366.947,34.6203 366.995,34.3096 367.07,33.8234 367.215,32.9271 367.506,31.2653 367.779,29.8493 368.135,28.197 368.366,27.2311 368.527,26.604 368.608,26.3027 368.663,26.1038 368.709,25.9398 368.751,25.7929 368.798,25.6294 368.874,25.3736 369.019,24.9021 369.309,24.0278 369.582,23.2828 369.938,22.4135 370.17,21.9054 370.331,21.5754 370.412,21.4169 370.467,21.3123 370.513,21.226 370.555,21.1487 370.602,21.0627 370.678,20.9281 370.823,20.68 371.113,20.2201 371.386,19.8281 371.742,19.3708 371.973,19.1034 372.135,18.9299 372.216,18.8465 372.271,18.7914 372.317,18.746 372.358,18.7054 372.406,18.6601 372.482,18.5893 372.627,18.4588 372.917,18.2168 373.19,18.0106 373.546,17.77 373.777,17.6293 373.939,17.538 374.02,17.4941 374.074,17.4652 374.12,17.4413 374.162,17.4199 374.21,17.3961 374.285,17.3588 374.43,17.2902 374.721,17.1629 374.994,17.0544 375.35,16.9278 375.581,16.8538 375.742,16.8057 375.823,16.7827 375.878,16.7674 375.924,16.7549 375.966,16.7436 376.013,16.7311 376.089,16.7115 376.234,16.6754 376.524,16.6084 376.798,16.5513 377.153,16.4847 377.385,16.4458 377.546,16.4205 377.627,16.4083 377.682,16.4003 377.728,16.3937 377.77,16.3878 377.817,16.3812 377.893,16.3709 378.038,16.3519 378.328,16.3167 378.601,16.2866 378.957,16.2516 379.189,16.2311 379.35,16.2178 379.431,16.2114 379.486,16.2072 379.532,16.2037 379.574,16.2006 379.621,16.1971 379.697,16.1917 379.842,16.1817 380.132,16.1632 380.405,16.1474 380.761,16.1289 380.992,16.1182 381.154,16.1112 381.235,16.1078 381.289,16.1056 381.336,16.1038 381.377,16.1021 381.425,16.1003 381.5,16.0974 381.646,16.0922 381.936,16.0824 382.209,16.0741 382.565,16.0644 382.796,16.0588 382.957,16.0551 383.038,16.0533 383.093,16.0521 383.139,16.0512 383.181,16.0503 383.229,16.0494 383.304,16.0479 383.449,16.0451 383.74,16.04 384.013,16.0356 384.369,16.0305 384.6,16.0275 384.761,16.0256 384.842,16.0246 384.897,16.024 384.943,16.0235 384.985,16.0231 385.032,16.0226 385.108,16.0218 385.253,16.0203 385.543,16.0176 385.816,16.0153 386.172,16.0126 386.404,16.0111 386.565,16.01 386.646,16.0095 386.701,16.0092 386.747,16.009 386.789,16.0087 386.836,16.0084 386.912,16.008 387.057,16.0073 387.347,16.0058 387.62,16.0046 387.976,16.0032 388.207,16.0024 388.369,16.0019 388.45,16.0016 388.505,16.0014 388.551,19.5814 388.592,23.7608 388.64,28.7019 388.716,36.4594 388.861,50.3585 389.151,74.417 389.424,93.0424 389.78,112.546 390.011,122.758 390.173,128.901 390.254,131.714 390.308,133.523 390.354,134.988 390.396,136.279 390.444,137.693 390.519,139.857 390.664,143.699 390.955,150.321 391.228,163.987 391.584,183.244 391.815,195.42 391.976,203.518 392.057,207.439 392.112,210.033 392.158,212.174 392.2,214.091 392.247,216.225 392.323,219.564 392.468,225.719 392.758,237.13 393.032,246.854 393.387,258.201 393.619,264.834 393.78,269.14 393.861,271.209 393.916,272.575 393.962,273.701 394.004,274.71 394.051,275.833 394.127,277.589 394.272,280.827 394.562,286.831 394.835,291.947 395.191,297.917 395.423,301.406 395.584,303.672 395.665,304.76 395.72,305.479 395.766,306.072 395.808,306.602 395.855,307.193 395.931,308.117 396.076,309.821 396.366,312.979 396.639,315.671 396.995,318.812 397.226,320.647 397.388,321.839 397.469,322.412 397.523,322.79 397.57,323.102 397.611,323.381 397.659,323.692 397.734,324.178 397.88,325.074 398.17,326.736 398.443,328.152 398.799,329.804 399.03,330.77 399.191,331.397 399.272,331.699 399.327,331.898 399.373,332.062 399.415,332.209 399.463,332.372 399.538,332.628 399.683,333.099 399.974,333.974 400.247,334.719 400.603,335.588 400.834,336.096 400.995,336.426 401.076,336.585 401.131,336.689 401.177,336.775 401.219,336.853 401.266,336.939 401.342,337.073 401.487,337.321 401.777,337.781 402.05,338.173 402.406,338.631 402.638,338.898 402.799,339.072 402.88,339.155 402.935,339.21 402.981,339.255 403.023,339.296 403.07,339.341 403.146,339.412 403.291,339.543 403.581,339.785 403.854,339.991 404.21,340.231 404.441,340.372 404.603,340.463 404.684,340.507 404.739,340.536 404.785,340.56 404.826,340.582 404.874,340.605 404.95,340.643 405.095,340.711 405.385,340.839 405.658,340.947 406.014,341.074 406.245,341.148 406.407,341.196 406.488,341.219 406.542,341.234 406.588,341.247 406.63,341.258 406.678,341.27 406.753,341.29 406.898,341.326 407.189,341.393 407.462,341.45 407.818,341.517 408.049,341.556 408.21,341.581 408.291,341.593 408.346,341.601 408.392,341.608 408.434,341.614 408.481,341.62 408.557,341.631 408.702,341.65 408.992,341.685 409.266,341.715 409.621,341.75 409.853,341.77 410.014,341.784 410.095,341.79 410.15,341.794 410.196,341.798 410.238,341.801 410.285,341.804 410.361,341.81 410.506,341.82 410.796,341.838 411.069,341.854 411.425,341.872 411.657,341.883 411.818,341.89 411.899,341.894 411.954,341.896 412,341.898 412.042,341.899 412.089,341.901 412.165,341.904 412.31,341.909 412.6,341.919 412.873,341.927 413.229,341.937 413.46,341.943 413.622,341.946 413.703,341.948 413.757,341.949 413.804,341.95 413.845,341.951 413.893,341.952 413.968,341.954 414.114,341.956 414.404,341.961 414.677,341.966 415.033,341.971 415.264,341.974 415.425,341.976 415.506,341.977 415.561,341.977 415.607,341.978 415.649,341.978 415.697,341.979 415.772,341.98 415.917,341.981 416.208,341.984 416.481,341.986 416.837,341.989 417.068,341.99 417.229,341.991 417.31,341.992 417.365,341.992 417.411,341.992 417.453,341.993 417.5,341.993 417.576,341.993 417.721,341.994 418.011,341.996 418.284,341.997 418.64,341.998 418.872,341.999 419.033,342 419.114,342 419.169,342 419.215,338.42 419.257,334.241 419.304,329.299 419.38,321.542 419.525,307.643 419.815,283.584 420.088,264.959 420.444,245.455 420.675,235.243 420.837,229.1 420.918,226.287 420.973,224.478 421.019,223.014 421.06,221.723 421.108,220.309 421.184,218.144 421.329,214.302 421.619,207.681 421.892,194.014 422.248,174.758 422.479,162.581 422.641,154.483 422.722,150.562 422.776,147.968 422.822,145.828 422.864,143.91 422.912,141.777 422.987,138.438 423.132,132.283 423.423,120.871 423.696,111.147 424.052,99.8005 424.283,93.1678 424.444,88.8613 424.525,86.7924 424.58,85.4265 424.626,84.3001 424.668,83.2913 424.715,82.1687 424.791,80.4122 424.936,77.174 425.226,71.1701 425.5,66.0543 425.855,60.0847 426.087,56.5952 426.248,54.3295 426.329,53.241 426.384,52.5224 426.43,51.9298 426.472,51.3991 426.519,50.8085 426.595,49.8843 426.74,48.1807 427.03,45.022 427.303,42.3305 427.659,39.1899 427.891,37.354 428.052,36.162 428.133,35.5894 428.188,35.2113 428.234,34.8995 428.276,34.6203 428.323,34.3096 428.399,33.8234 428.544,32.9271 428.834,31.2653 429.107,29.8493 429.463,28.197 429.694,27.2311 429.856,26.604 429.937,26.3027 429.991,26.1038 430.038,25.9398 430.079,25.7929 430.127,25.6294 430.202,25.3736 430.348,24.9021 430.638,24.0278 430.911,23.2828 431.267,22.4135 431.498,21.9054 431.659,21.5754 431.74,21.4169 431.795,21.3123 431.841,21.226 431.883,21.1487 431.931,21.0627 432.006,20.9281 432.151,20.68 432.442,20.2201 432.715,19.8281 433.071,19.3708 433.302,19.1034 433.463,18.9299 433.544,18.8465 433.599,18.7914 433.645,18.746 433.687,18.7054 433.734,18.6601 433.81,18.5893 433.955,18.4588 434.245,18.2168 434.518,18.0106 434.874,17.77 435.106,17.6293 435.267,17.538 435.348,17.4941 435.403,17.4652 435.449,17.4413 435.491,17.4199 435.538,17.3961 435.614,17.3588 435.759,17.2902 436.049,17.1629 436.322,17.0544 436.678,16.9278 436.909,16.8538 437.071,16.8057 437.152,16.7827 437.207,16.7674 437.253,16.7549 437.294,16.7436 437.342,16.7311 437.418,16.7115 437.563,16.6754 437.853,16.6084 438.126,16.5513 438.482,16.4847 438.713,16.4458 438.875,16.4205 438.956,16.4083 439.01,16.4003 439.056,16.3937 439.098,16.3878 439.146,16.3812 439.221,16.3709 439.366,16.3519 439.657,16.3167 439.93,16.2866 440.286,16.2516 440.517,16.2311 440.678,16.2178 440.759,16.2114 440.814,16.2072 440.86,16.2037 440.902,16.2006 440.949,16.1971 441.025,16.1917 441.17,16.1817 441.46,16.1632 441.734,16.1474 442.09,16.1289 442.321,16.1182 442.482,16.1112 442.563,16.1078 442.618,16.1056 442.664,16.1038 442.706,16.1021 442.753,16.1003 442.829,16.0974 442.974,16.0922 443.264,16.0824 443.537,16.0741 443.893,16.0644 444.125,16.0588 444.286,16.0551 444.367,16.0533 444.422,16.0521 444.468,16.0512 444.51,16.0503 444.557,16.0494 444.633,16.0479 444.778,16.0451 445.068,16.04 445.341,16.0356 445.697,16.0305 445.928,16.0275 446.09,16.0256 446.171,16.0246 446.225,16.024 446.272,16.0235 446.313,16.0231 446.361,16.0226 446.436,16.0218 446.582,16.0203 446.872,16.0176 447.145,16.0153 447.501,16.0126 447.732,16.0111 447.893,16.01 447.974,16.0095 448.029,16.0092 448.075,16.009 448.117,16.0087 448.165,16.0084 448.24,16.008 448.385,16.0073 448.676,16.0058 448.949,16.0046 449.305,16.0032 449.536,16.0024 449.697,16.0019 449.778,16.0016 449.833,16.0014 449.879,19.5814 449.921,23.7608 449.968,28.7019 450.044,36.4594 450.189,50.3585 450.479,74.417 450.752,93.0424 451.108,112.546 451.34,122.758 451.501,128.901 451.582,131.714 451.637,133.523 451.683,134.988 451.725,136.279 451.772,137.693 451.848,139.857 451.993,143.699 452.283,150.321 452.556,163.987 452.912,183.244 453.143,195.42 453.305,203.518 453.386,207.439 453.441,210.033 453.487,212.174 453.529,214.091 453.576,216.225 453.652,219.564 453.797,225.719 454.087,237.13 454.36,246.854 454.716,258.201 454.947,264.834 455.109,269.14 455.19,271.209 455.244,272.575 455.29,273.701 455.332,274.71 455.38,275.833 455.455,277.589 455.6,280.827 455.891,286.831 456.164,291.947 456.52,297.917 456.751,301.406 456.912,303.672 456.993,304.76 457.048,305.479 457.094,306.072 457.136,306.602 457.183,307.193 457.259,308.117 457.404,309.821 457.694,312.979 457.968,315.671 458.324,318.812 458.555,320.647 458.716,321.839 458.797,322.412 458.852,322.79 458.898,323.102 458.94,323.381 458.987,323.692 459.063,324.178 459.208,325.074 459.498,326.736 459.771,328.152 460.127,329.804 460.359,330.77 460.52,331.397 460.601,331.699 460.656,331.898 460.702,332.062 460.744,332.209 460.791,332.372 460.867,332.628 461.012,333.099 461.302,333.974 461.575,334.719 461.931,335.588 462.162,336.096 462.324,336.426 462.405,336.585 462.459,336.689 462.506,336.775 462.547,336.853 462.595,336.939 462.67,337.073 462.816,337.321 463.106,337.781 463.379,338.173 463.735,338.631 463.966,338.898 464.127,339.072 464.208,339.155 464.263,339.21 464.309,339.255 464.351,339.296 464.399,339.341 464.474,339.412 464.619,339.543 464.91,339.785 465.183,339.991 465.539,340.231 465.77,340.372 465.931,340.463 466.012,340.507 466.067,340.536 466.113,340.56 466.155,340.582 466.202,340.605 466.278,340.643 466.423,340.711 466.713,340.839 466.986,340.947 467.342,341.074 467.574,341.148 467.735,341.196 467.816,341.219 467.871,341.234 467.917,341.247 467.959,341.258 468.006,341.27 468.082,341.29 468.227,341.326 468.517,341.393 468.79,341.45 469.146,341.517 469.377,341.556 469.539,341.581 469.62,341.593 469.675,341.601 469.721,341.608 469.763,341.614 469.81,341.62 469.886,341.631 470.031,341.65 470.321,341.685 470.594,341.715 470.95,341.75 471.181,341.77 471.343,341.784 471.424,341.79 471.478,341.794 471.524,341.798 471.566,341.801 471.614,341.804 471.689,341.81 471.834,341.82 472.125,341.838 472.398,341.854 472.754,341.872 472.985,341.883 473.146,341.89 473.227,341.894 473.282,341.896 473.328,341.898 473.37,341.899 473.417,341.901 473.493,341.904 473.638,341.909 473.928,341.919 474.202,341.927 474.558,341.937 474.789,341.943 474.95,341.946 475.031,341.948 475.086,341.949 475.132,341.95 475.174,341.951 475.221,341.952 475.297,341.954 475.442,341.956 475.732,341.961 476.005,341.966 476.361,341.971 476.593,341.974 476.754,341.976 476.835,341.977 476.89,341.977 476.936,341.978 476.978,341.978 477.025,341.979 477.101,341.98 477.246,341.981 477.536,341.984 477.809,341.986 478.165,341.989 478.396,341.99 478.558,341.991 478.639,341.992 478.693,341.992 478.74,341.992 478.781,341.993 478.829,341.993 478.904,341.993 479.05,341.994 479.34,341.996 479.613,341.997 479.969,341.998 480.2,341.999 480.361,342 480.442,342 480.497,342 480.543,338.42 480.585,334.241 480.633,329.299 480.708,321.542 480.853,307.643 481.144,283.584 481.417,264.959 481.773,245.455 482.004,235.243 482.165,229.1 482.246,226.287 482.301,224.478 482.347,223.014 482.389,221.723 482.436,220.309 482.512,218.144 482.657,214.302 482.947,207.681 483.22,194.014 483.576,174.758 483.808,162.581 483.969,154.483 484.05,150.562 484.105,147.968 484.151,145.828 484.193,143.91 484.24,141.777 484.316,138.438 484.461,132.283 484.751,120.871 485.024,111.147 485.38,99.8005 485.611,93.1678 485.773,88.8613 485.854,86.7924 485.909,85.4265 485.955,84.3001 485.997,83.2913 486.044,82.1687 486.12,80.4122 486.265,77.174 486.555,71.1701 486.828,66.0543 487.184,60.0847 487.415,56.5952 487.577,54.3295 487.658,53.241 487.712,52.5224 487.758,51.9298 487.8,51.3991 487.848,50.8085 487.923,49.8843 488.068,48.1807 488.359,45.022 488.632,42.3305 488.988,39.1899 489.219,37.354 489.38,36.162 489.461,35.5894 489.516,35.2113 489.562,34.8995 489.604,34.6203 489.651,34.3096 489.727,33.8234 489.872,32.9271 490.162,31.2653 490.436,29.8493 490.792,28.197 491.023,27.2311 491.184,26.604 491.265,26.3027 491.32,26.1038 491.366,25.9398 491.408,25.7929 491.455,25.6294 491.531,25.3736 491.676,24.9021 491.966,24.0278 492.239,23.2828 492.595,22.4135 492.827,21.9054 492.988,21.5754 493.069,21.4169 493.124,21.3123 493.17,21.226 493.212,21.1487 493.259,21.0627 493.335,20.9281 493.48,20.68 493.77,20.2201 494.043,19.8281 494.399,19.3708 494.63,19.1034 494.792,18.9299 494.873,18.8465 494.927,18.7914 494.974,18.746 495.015,18.7054 495.063,18.6601 495.138,18.5893 495.284,18.4588 495.574,18.2168 495.847,18.0106 496.203,17.77 496.434,17.6293 496.595,17.538 496.676,17.4941 496.731,17.4652 496.777,17.4413 496.819,17.4199 496.867,17.3961 496.942,17.3588 497.087,17.2902 497.378,17.1629 497.651,17.0544 498.007,16.9278 498.238,16.8538 498.399,16.8057 498.48,16.7827 498.535,16.7674 498.581,16.7549 498.623,16.7436 498.67,16.7311 498.746,16.7115 498.891,16.6754 499.181,16.6084 499.454,16.5513 499.81,16.4847 500.042,16.4458 500.203,16.4205 500.284,16.4083 500.339,16.4003 500.385,16.3937 500.427,16.3878 500.474,16.3812 500.55,16.3709 500.695,16.3519 500.985,16.3167 501.258,16.2866 501.614,16.2516 501.845,16.2311 502.007,16.2178 502.088,16.2114 502.143,16.2072 502.189,16.2037 502.231,16.2006 502.278,16.1971 502.354,16.1917 502.499,16.1817 502.789,16.1632 503.062,16.1474 503.418,16.1289 503.649,16.1182 503.811,16.1112 503.892,16.1078 503.946,16.1056 503.992,16.1038 504.034,16.1021 504.082,16.1003 504.157,16.0974 504.302,16.0922 504.593,16.0824 504.866,16.0741 505.222,16.0644 505.453,16.0588 505.614,16.0551 505.695,16.0533 505.75,16.0521 505.796,16.0512 505.838,16.0503 505.885,16.0494 505.961,16.0479 506.106,16.0451 506.396,16.04 506.67,16.0356 507.026,16.0305 507.257,16.0275 507.418,16.0256 507.499,16.0246 507.554,16.024 507.6,16.0235 507.642,16.0231 507.689,16.0226 507.765,16.0218 507.91,16.0203 508.2,16.0176 508.473,16.0153 508.829,16.0126 509.061,16.0111 509.222,16.01 509.303,16.0095 509.358,16.0092 509.404,16.009 509.446,16.0087 509.493,16.0084 509.569,16.008 509.714,16.0073 510.004,16.0058 510.277,16.0046 510.633,16.0032 510.864,16.0024 511.026,16.0019 511.107,16.0016 511.161,16.0014 511.208,19.5814 511.249,23.7608 511.297,28.7019 511.372,36.4594 511.518,50.3585 511.808,74.417 512.081,93.0424 512.437,112.546 512.668,122.758 512.829,128.901 512.91,131.714 512.965,133.523 513.011,134.988 513.053,136.279 513.101,137.693 513.176,139.857 513.321,143.699 513.612,150.321 513.885,163.987 514.241,183.244 514.472,195.42 514.633,203.518 514.714,207.439 514.769,210.033 514.815,212.174 514.857,214.091 514.904,216.225 514.98,219.564 515.125,225.719 515.415,237.13 515.688,246.854 516.044,258.201 516.276,264.834 516.437,269.14 516.518,271.209 516.573,272.575 516.619,273.701 516.661,274.71 516.708,275.833 516.784,277.589 516.929,280.827 517.219,286.831 517.492,291.947 517.848,297.917 518.079,301.406 518.241,303.672 518.322,304.76 518.377,305.479 518.423,306.072 518.465,306.602 518.512,307.193 518.588,308.117 518.733,309.821 519.023,312.979 519.296,315.671 519.652,318.812 519.883,320.647 520.045,321.839 520.126,322.412 520.18,322.79 520.226,323.102 520.268,323.381 520.316,323.692 520.391,324.178 520.536,325.074 520.827,326.736 521.1,328.152 521.456,329.804 521.687,330.77 521.848,331.397 521.929,331.699 521.984,331.898 522.03,332.062 522.072,332.209 522.119,332.372 522.195,332.628 522.34,333.099 522.63,333.974 522.904,334.719 523.26,335.588 523.491,336.096 523.652,336.426 523.733,336.585 523.788,336.689 523.834,336.775 523.876,336.853 523.923,336.939 523.999,337.073 524.144,337.321 524.434,337.781 524.707,338.173 525.063,338.631 525.295,338.898 525.456,339.072 525.537,339.155 525.592,339.21 525.638,339.255 525.68,339.296 525.727,339.341 525.803,339.412 525.948,339.543 526.238,339.785 526.511,339.991 526.867,340.231 527.098,340.372 527.26,340.463 527.341,340.507 527.395,340.536 527.442,340.56 527.483,340.582 527.531,340.605 527.606,340.643 527.752,340.711 528.042,340.839 528.315,340.947 528.671,341.074 528.902,341.148 529.063,341.196 529.144,341.219 529.199,341.234 529.245,341.247 529.287,341.258 529.335,341.27 529.41,341.29 529.555,341.326 529.846,341.393 530.119,341.45 530.475,341.517 530.706,341.556 530.867,341.581 530.948,341.593 531.003,341.601 531.049,341.608 531.091,341.614 531.138,341.62 531.214,341.631 531.359,341.65 531.649,341.685 531.922,341.715 532.278,341.75 532.51,341.77 532.671,341.784 532.752,341.79 532.807,341.794 532.853,341.798 532.895,341.801 532.942,341.804 533.018,341.81 533.163,341.82 533.453,341.838 533.726,341.854 534.082,341.872 534.313,341.883 534.475,341.89 534.556,341.894 534.611,341.896 534.657,341.898 534.699,341.899 534.746,341.901 534.822,341.904 534.967,341.909 535.257,341.919 535.53,341.927 535.886,341.937 536.117,341.943 536.279,341.946 536.36,341.948 536.414,341.949 536.46,341.95 536.502,341.951 536.55,341.952 536.625,341.954 536.77,341.956 537.061,341.961 537.334,341.966 537.69,341.971 537.921,341.974 538.082,341.976 538.163,341.977 538.218,341.977 538.264,341.978 538.306,341.978 538.353,341.979 538.429,341.98 538.574,341.981 538.864,341.984 539.138,341.986 539.494,341.989 539.725,341.99 539.886,341.991 539.967,341.992 540.022,341.992 540.068,341.992 540.11,341.993 540.157,341.993 540.233,341.993 540.378,341.994 540.668,341.996 540.941,341.997 541.297,341.998 541.529,341.999 541.69,342 541.771,342 541.826,342 541.872,338.42 541.914,334.241 541.961,329.299 542.037,321.542 542.182,307.643 542.472,283.584 542.745,264.959 543.101,245.455 543.332,235.243 543.494,229.1 543.575,226.287 543.629,224.478 543.676,223.014 543.717,221.723 543.765,220.309 543.84,218.144 543.986,214.302 544.276,207.681 544.549,194.014 544.905,174.758 545.136,162.581 545.297,154.483 545.378,150.562 545.433,147.968 545.479,145.828 545.521,143.91 545.569,141.777 545.644,138.438 545.789,132.283 546.08,120.871 546.353,111.147 546.709,99.8005 546.94,93.1678 547.101,88.8613 547.182,86.7924 547.237,85.4265 547.283,84.3001 547.325,83.2913 547.372,82.1687 547.448,80.4122 547.593,77.174 547.883,71.1701 548.156,66.0543 548.512,60.0847 548.744,56.5952 548.905,54.3295 548.986,53.241 549.041,52.5224 549.087,51.9298 549.129,51.3991 549.176,50.8085 549.252,49.8843 549.397,48.1807 549.687,45.022 549.96,42.3305 550.316,39.1899 550.547,37.354 550.709,36.162 550.79,35.5894 550.845,35.2113 550.891,34.8995 550.933,34.6203 550.98,34.3096 551.056,33.8234 551.201,32.9271 551.491,31.2653 551.764,29.8493 552.12,28.197 552.351,27.2311 552.513,26.604 552.594,26.3027 552.648,26.1038 552.694,25.9398 552.736,25.7929 552.784,25.6294 552.859,25.3736 553.004,24.9021 553.295,24.0278 553.568,23.2828 553.924,22.4135 554.155,21.9054 554.316,21.5754 554.397,21.4169 554.452,21.3123 554.498,21.226 554.54,21.1487 554.587,21.0627 554.663,20.9281 554.808,20.68 555.098,20.2201 555.372,19.8281 555.728,19.3708 555.959,19.1034 556.12,18.9299 556.201,18.8465 556.256,18.7914 556.302,18.746 556.344,18.7054 556.391,18.6601 556.467,18.5893 556.612,18.4588 556.902,18.2168 557.175,18.0106 557.531,17.77 557.763,17.6293 557.924,17.538 558.005,17.4941 558.06,17.4652 558.106,17.4413 558.148,17.4199 558.195,17.3961 558.271,17.3588 558.416,17.2902 558.706,17.1629 558.979,17.0544 559.335,16.9278 559.566,16.8538 559.728,16.8057 559.809,16.7827 559.863,16.7674 559.91,16.7549 559.951,16.7436 559.999,16.7311 560.074,16.7115 560.22,16.6754 560.51,16.6084 560.783,16.5513 561.139,16.4847 561.37,16.4458 561.531,16.4205 561.612,16.4083 561.667,16.4003 561.713,16.3937 561.755,16.3878 561.803,16.3812 561.878,16.3709 562.023,16.3519 562.314,16.3167 562.587,16.2866 562.943,16.2516 563.174,16.2311 563.335,16.2178 563.416,16.2114 563.471,16.2072 563.517,16.2037 563.559,16.2006 563.606,16.1971 563.682,16.1917 563.827,16.1817 564.117,16.1632 564.39,16.1474 564.746,16.1289 564.978,16.1182 565.139,16.1112 565.22,16.1078 565.275,16.1056 565.321,16.1038 565.363,16.1021 565.41,16.1003 565.486,16.0974 565.631,16.0922 565.921,16.0824 566.194,16.0741 566.55,16.0644 566.781,16.0588 566.943,16.0551 567.024,16.0533 567.079,16.0521 567.125,16.0512 567.167,16.0503 567.214,16.0494 567.29,16.0479 567.435,16.0451 567.725,16.04 567.998,16.0356 568.354,16.0305 568.585,16.0275 568.747,16.0256 568.828,16.0246 568.882,16.024 568.928,16.0235 568.97,16.0231 569.018,16.0226 569.093,16.0218 569.238,16.0203 569.529,16.0176 569.802,16.0153 570.158,16.0126 570.389,16.0111 570.55,16.01 570.631,16.0095 570.686,16.0092 570.732,16.009 570.774,16.0087 570.821,16.0084 570.897,16.008 571.042,16.0073 571.332,16.0058 571.606,16.0046 571.962,16.0032 572.193,16.0024 572.354,16.0019 572.435,16.0016 572.49,16.0014 572.536,19.5814 572.578,23.7608 572.625,28.7019 572.701,36.4594 572.846,50.3585 573.136,74.417 573.409,93.0424 573.765,112.546 573.997,122.758 574.158,128.901 574.239,131.714 574.294,133.523 574.34,134.988 574.382,136.279 574.429,137.693 574.505,139.857 574.65,143.699 574.94,150.321 575.213,163.987 575.569,183.244 575.8,195.42 575.962,203.518 576.043,207.439 576.097,210.033 576.144,212.174 576.185,214.091 576.233,216.225 576.308,219.564 576.454,225.719 576.744,237.13 577.017,246.854 577.373,258.201 577.604,264.834 577.765,269.14 577.846,271.209 577.901,272.575 577.947,273.701 577.989,274.71 578.037,275.833 578.112,277.589 578.257,280.827 578.548,286.831 578.821,291.947 579.177,297.917 579.408,301.406 579.569,303.672 579.65,304.76 579.705,305.479 579.751,306.072 579.793,306.602 579.84,307.193 579.916,308.117 580.061,309.821 580.351,312.979 580.624,315.671 580.98,318.812 581.212,320.647 581.373,321.839 581.454,322.412 581.509,322.79 581.555,323.102 581.597,323.381 581.644,323.692 581.72,324.178 581.865,325.074 582.155,326.736 582.428,328.152 582.784,329.804 583.015,330.77 583.177,331.397 583.258,331.699 583.313,331.898 583.359,332.062 583.401,332.209 583.448,332.372 583.524,332.628 583.669,333.099 583.959,333.974 584.232,334.719 584.588,335.588 584.819,336.096 584.981,336.426 585.062,336.585 585.116,336.689 585.162,336.775 585.204,336.853 585.252,336.939 585.327,337.073 585.472,337.321 585.763,337.781 586.036,338.173 586.392,338.631 586.623,338.898 586.784,339.072 586.865,339.155 586.92,339.21 586.966,339.255 587.008,339.296 587.055,339.341 587.131,339.412 587.276,339.543 587.566,339.785 587.84,339.991 588.196,340.231 588.427,340.372 588.588,340.463 588.669,340.507 588.724,340.536 588.77,340.56 588.812,340.582 588.859,340.605 588.935,340.643 589.08,340.711 589.37,340.839 589.643,340.947 589.999,341.074 590.231,341.148 590.392,341.196 590.473,341.219 590.528,341.234 590.574,341.247 590.616,341.258 590.663,341.27 590.739,341.29 590.884,341.326 591.174,341.393 591.447,341.45 591.803,341.517 592.034,341.556 592.196,341.581 592.277,341.593 592.331,341.601 592.378,341.608 592.419,341.614 592.467,341.62 592.542,341.631 592.688,341.65 592.978,341.685 593.251,341.715 593.607,341.75 593.838,341.77 593.999,341.784 594.08,341.79 594.135,341.794 594.181,341.798 594.223,341.801 594.271,341.804 594.346,341.81 594.491,341.82 594.782,341.838 595.055,341.854 595.411,341.872 595.642,341.883 595.803,341.89 595.884,341.894 595.939,341.896 595.985,341.898 596.027,341.899 596.074,341.901 596.15,341.904 596.295,341.909 596.585,341.919 596.858,341.927 597.214,341.937 597.446,341.943 597.607,341.946 597.688,341.948 597.743,341.949 597.789,341.95 597.831,341.951 597.878,341.952 597.954,341.954 598.099,341.956 598.389,341.961 598.662,341.966 599.018,341.971 599.249,341.974 599.411,341.976 599.492,341.977 599.547,341.977 599.593,341.978 599.635,341.978 599.682,341.979 599.758,341.98 599.903,341.981 600.193,341.984 600.466,341.986 600.822,341.989 601.053,341.99 601.215,341.991 601.296,341.992 601.35,341.992 601.396,341.992 601.438,341.993 601.486,341.993 601.561,341.993 601.706,341.994 601.997,341.996 602.27,341.997 602.626,341.998 602.857,341.999 603.018,342 603.099,342 603.154,342 603.2,338.42 603.242,334.241 603.289,329.299 603.365,321.542 603.51,307.643 603.8,283.584 604.074,264.959 604.43,245.455 604.661,235.243 604.822,229.1 604.903,226.287 604.958,224.478 605.004,223.014 605.046,221.723 605.093,220.309 605.169,218.144 605.314,214.302 605.604,207.681 605.877,194.014 606.233,174.758 606.465,162.581 606.626,154.483 606.707,150.562 606.762,147.968 606.808,145.828 606.85,143.91 606.897,141.777 606.973,138.438 607.118,132.283 607.408,120.871 607.681,111.147 608.037,99.8005 608.268,93.1678 608.43,88.8613 608.511,86.7924 608.566,85.4265 608.612,84.3001 608.653,83.2913 608.701,82.1687 608.776,80.4122 608.922,77.174 609.212,71.1701 609.485,66.0543 609.841,60.0847 610.072,56.5952 610.233,54.3295 610.314,53.241 610.369,52.5224 610.415,51.9298 610.457,51.3991 610.505,50.8085 610.58,49.8843 610.725,48.1807 611.016,45.022 611.289,42.3305 611.645,39.1899 611.876,37.354 612.037,36.162 612.118,35.5894 612.173,35.2113 612.219,34.8995 612.261,34.6203 612.308,34.3096 612.384,33.8234 612.529,32.9271 612.819,31.2653 613.092,29.8493 613.448,28.197 613.68,27.2311 613.841,26.604 613.922,26.3027 613.977,26.1038 614.023,25.9398 614.065,25.7929 614.112,25.6294 614.188,25.3736 614.333,24.9021 614.623,24.0278 614.779,23.5936 614.89,23.3011 615,23.0199 " fill="none" stroke="#5470c6" stroke-width="2" stroke-linecap="butt" stroke-linejoin="miter"/>
</g>
<rect x="0" y="0" width="700" height="8" fill="#f0f0f0"/>
<rect x="0" y="8" width="44" height="342" fill="#f0f0f0"/>
<rect x="623" y="8" width="77" height="342" fill="#f0f0f0"/>
<rect x="0" y="350" width="700" height="50" fill="#f0f0f0"/>
<rect x="43" y="350" width="581" height="1" fill="#ffffff"/>
<rect x="623" y="7" width="1" height="344" fill="#ffffff"/>
<polygon points="43,351 43,7 624,7 623,8 44,8 44,350 " fill="#a0a0a0" fill-opacity="1" fill-rule="evenodd"/>
<rect x="629" y="26" width="65" height="1" fill="#ffffff"/>
<rect x="693" y="9" width="1" height="18" fill="#ffffff"/>
<polygon points="629,27 629,9 694,9 693,10 630,10 630,26 " fill="#a0a0a0" fill-opacity="1" fill-rule="evenodd"/>
<polyline points="634,18 650,18 " fill="none" stroke="#5470c6" stroke-width="4" stroke-linecap="butt" stroke-linejoin="miter"/>
<g transform="translate(672 18) rotate(-0) translate(-18 -5)" font-family="Arial" font-size="7.99301" font-weight="normal" font-style="normal">
<text xml:space="preserve" x="0" y="8" textLength="36" lengthAdjust="spacingAndGlyphs" fill="#000000">v(osc_out)</text>
</g>
<g transform="translate(333 390) rotate(-0) translate(-15.5 -7)" font-family="Arial" font-size="10.6573" font-weight="normal" font-style="normal">
<text xml:space="preserve" x="0" y="11" textLength="31" lengthAdjust="spacingAndGlyphs" fill="#000000">time, s</text>
</g>
<g transform="translate(52 371.5) rotate(-0) translate(-4.5 -7.5)" font-family="Arial Narrow" font-size="10.6573" font-weight="normal" font-style="normal">
<text xml:space="preserve" x="2" y="12" textLength="5" lengthAdjust="spacingAndGlyphs" fill="#000000">0</text>
</g>
<g transform="translate(192.75 371.5) rotate(-0) translate(-13.5 -7.5)" font-family="Arial Narrow" font-size="10.6573" font-weight="normal" font-style="normal">
<text xml:space="preserve" x="2" y="12" textLength="23" lengthAdjust="spacingAndGlyphs" fill="#000000">1e-08</text>
</g>
<g transform="translate(333.5 371.5) rotate(-0) translate(-13.5 -7.5)" font-family="Arial Narrow" font-size="10.6573" font-weight="normal" font-style="normal">
<text xml:space="preserve" x="2" y="12" textLength="23" lengthAdjust="spacingAndGlyphs" fill="#000000">2e-08</text>
</g>
<g transform="translate(474.25 371.5) rotate(-0) translate(-13.5 -7.5)" font-family="Arial Narrow" font-size="10.6573" font-weight="normal" font-style="normal">
<text xml:space="preserve" x="2" y="12" textLength="23" lengthAdjust="spacingAndGlyphs" fill="#000000">3e-08</text>
</g>
<g transform="translate(615 371.5) rotate(-0) translate(-13.5 -7.5)" font-family="Arial Narrow" font-size="10.6573" font-weight="normal" font-style="normal">
<text xml:space="preserve" x="2" y="12" textLength="23" lengthAdjust="spacingAndGlyphs" fill="#000000">4e-08</text>
</g>
<polyline points="52,354 615,354 " fill="none" stroke="#000000" stroke-width="1" stroke-linecap="butt" stroke-linejoin="miter"/>
<polyline points="122.375,354 122.375,359 " fill="none" stroke="#000000" stroke-width="1" stroke-linecap="butt" stroke-linejoin="miter"/>
<polyline points="52,354 52,362 " fill="none" stroke="#000000" stroke-width="1" stroke-linecap="butt" stroke-linejoin="miter"/>
<polyline points="263.125,354 263.125,359 " fill="none" stroke="#000000" stroke-width="1" stroke-linecap="butt" stroke-linejoin="miter"/>
<polyline points="192.75,354 192.75,362 " fill="none" stroke="#000000" stroke-width="1" stroke-linecap="butt" stroke-linejoin="miter"/>
<polyline points="403.875,354 403.875,359 " fill="none" stroke="#000000" stroke-width="1" stroke-linecap="butt" stroke-linejoin="miter"/>
<polyline points="333.5,354 333.5,362 " fill="none" stroke="#000000" stroke-width="1" stroke-linecap="butt" stroke-linejoin="miter"/>
<polyline points="544.625,354 544.625,359 " fill="none" stroke="#000000" stroke-width="1" stroke-linecap="butt" stroke-linejoin="miter"/>
<polyline points="474.25,354 474.25,362 " fill="none" stroke="#000000" stroke-width="1" stroke-linecap="butt" stroke-linejoin="miter"/>
<polyline points="615,354 615,362 " fill="none" stroke="#000000" stroke-width="1" stroke-linecap="butt" stroke-linejoin="miter"/>
<g transform="translate(11 179) rotate(-90) translate(-42 -7)" font-family="Arial" font-size="10.6573" font-weight="normal" font-style="normal">
<text xml:space="preserve" x="0" y="11" textLength="84" lengthAdjust="spacingAndGlyphs" fill="#000000">Output voltage, V</text>
</g>
<g transform="translate(25.5 233.337) rotate(-0) translate(-4.5 -7.5)" font-family="Arial Narrow" font-size="10.6573" font-weight="normal" font-style="normal">
<text xml:space="preserve" x="2" y="12" textLength="5" lengthAdjust="spacingAndGlyphs" fill="#000000">1</text>
</g>
<g transform="translate(25.5 124.665) rotate(-0) translate(-4.5 -7.5)" font-family="Arial Narrow" font-size="10.6573" font-weight="normal" font-style="normal">
<text xml:space="preserve" x="2" y="12" textLength="5" lengthAdjust="spacingAndGlyphs" fill="#000000">2</text>
</g>
<polyline points="40,342 40,16 " fill="none" stroke="#000000" stroke-width="1" stroke-linecap="butt" stroke-linejoin="miter"/>
<polyline points="40,287.673 35,287.673 " fill="none" stroke="#000000" stroke-width="1" stroke-linecap="butt" stroke-linejoin="miter"/>
<polyline points="40,179.001 35,179.001 " fill="none" stroke="#000000" stroke-width="1" stroke-linecap="butt" stroke-linejoin="miter"/>
<polyline points="40,233.337 32,233.337 " fill="none" stroke="#000000" stroke-width="1" stroke-linecap="butt" stroke-linejoin="miter"/>
<polyline points="40,70.3288 35,70.3288 " fill="none" stroke="#000000" stroke-width="1" stroke-linecap="butt" stroke-linejoin="miter"/>
<polyline points="40,124.665 32,124.665 " fill="none" stroke="#000000" stroke-width="1" stroke-linecap="butt" stroke-linejoin="miter"/>
</svg>
