<?xml version="1.0" encoding="UTF-8" standalone="no"?>
<svg
   width="1701.3326"
   height="226.45012"
   version="1.1"
   id="svg20"
   sodipodi:docname="spicegentcl_logo.svg"
   inkscape:version="1.2.2 (b0a8486541, 2022-12-01)"
   inkscape:export-filename="spicegentcl_logo.png"
   inkscape:export-xdpi="96"
   inkscape:export-ydpi="96"
   xmlns:inkscape="http://www.inkscape.org/namespaces/inkscape"
   xmlns:sodipodi="http://sodipodi.sourceforge.net/DTD/sodipodi-0.dtd"
   xmlns="http://www.w3.org/2000/svg"
   xmlns:svg="http://www.w3.org/2000/svg">
  <defs
     id="defs24">
    <linearGradient
       id="linearGradient5456"
       inkscape:swatch="solid">
      <stop
         style="stop-color:#d45500;stop-opacity:1;"
         offset="0"
         id="stop5454" />
    </linearGradient>
  </defs>
  <sodipodi:namedview
     id="namedview22"
     pagecolor="#ffffff"
     bordercolor="#000000"
     borderopacity="0.25"
     inkscape:showpageshadow="2"
     inkscape:pageopacity="0.0"
     inkscape:pagecheckerboard="0"
     inkscape:deskcolor="#d1d1d1"
     showgrid="false"
     inkscape:zoom="0.85444444"
     inkscape:cx="833.28999"
     inkscape:cy="61.443433"
     inkscape:window-width="2560"
     inkscape:window-height="1008"
     inkscape:window-x="0"
     inkscape:window-y="0"
     inkscape:window-maximized="1"
     inkscape:current-layer="svg20" />
  <style
     type="text/css"
     id="style2">
.l0{
  fill: #000000;
  stroke: #000000;
  stroke-linecap:round;
  stroke-linejoin:round;
  stroke-width: 1.62439;
  fill-opacity: 0;
  stroke-opacity: 0;
}
.l1{
  fill: #00ccee;
  stroke: #00ccee;
  stroke-linecap:round;
  stroke-linejoin:round;
  stroke-width: 1.62439;
}
.l2{
  fill: #4f4f4f; fill-opacity: 0.2;
  stroke: #4f4f4f;
  stroke-linecap:round;
  stroke-linejoin:round;
  stroke-width: 1.62439;
}
.l3{
  fill: #cccccc; fill-opacity: 0.5;
  stroke: #cccccc;
  stroke-linecap:round;
  stroke-linejoin:round;
  stroke-width: 1.62439;
}
.l4{
  fill: #88dd00;
  stroke: #88dd00;
  stroke-linecap:round;
  stroke-linejoin:round;
  stroke-width: 1.62439;
}
.l5{
  fill: #bb2200;
  stroke: #bb2200;
  stroke-linecap:round;
  stroke-linejoin:round;
  stroke-width: 1.62439;
}
.l6{
  fill: #00ccee; fill-opacity: 0.5;
  stroke: #00ccee;
  stroke-linecap:round;
  stroke-linejoin:round;
  stroke-width: 1.62439;
}
.l7{
  fill: #ff0000; fill-opacity: 0.5;
  stroke: #ff0000;
  stroke-linecap:round;
  stroke-linejoin:round;
  stroke-width: 1.62439;
}
.l8{
  fill: #ffff00; fill-opacity: 0.5;
  stroke: #ffff00;
  stroke-linecap:round;
  stroke-linejoin:round;
  stroke-width: 1.62439;
}
.l9{
  fill: #ffffff; fill-opacity: 0.5;
  stroke: #ffffff;
  stroke-linecap:round;
  stroke-linejoin:round;
  stroke-width: 1.62439;
}
.l10{
  fill: #ff00ff;
  stroke: #ff00ff;
  stroke-linecap:round;
  stroke-linejoin:round;
  stroke-width: 1.62439;
}
.l11{
  fill: #00ff00; fill-opacity: 0.5;
  stroke: #00ff00;
  stroke-linecap:round;
  stroke-linejoin:round;
  stroke-width: 1.62439;
}
.l12{
  fill: #0000ff; fill-opacity: 0.5;
  stroke: #0000ff;
  stroke-linecap:round;
  stroke-linejoin:round;
  stroke-width: 1.62439;
}
.l13{
  fill: #aaaa00; fill-opacity: 0.5;
  stroke: #aaaa00;
  stroke-linecap:round;
  stroke-linejoin:round;
  stroke-width: 1.62439;
}
.l14{
  fill: #aaccaa; fill-opacity: 0.2;
  stroke: #aaccaa;
  stroke-linecap:round;
  stroke-linejoin:round;
  stroke-width: 1.62439;
}
.l15{
  fill: #ff7777; fill-opacity: 0.5;
  stroke: #ff7777;
  stroke-linecap:round;
  stroke-linejoin:round;
  stroke-width: 1.62439;
}
.l16{
  fill: #bfff81; fill-opacity: 0.5;
  stroke: #bfff81;
  stroke-linecap:round;
  stroke-linejoin:round;
  stroke-width: 1.62439;
}
.l17{
  fill: #00ffcc; fill-opacity: 0.2;
  stroke: #00ffcc;
  stroke-linecap:round;
  stroke-linejoin:round;
  stroke-width: 1.62439;
}
.l18{
  fill: #ce0097; fill-opacity: 0.5;
  stroke: #ce0097;
  stroke-linecap:round;
  stroke-linejoin:round;
  stroke-width: 1.62439;
}
.l19{
  fill: #d2d46b; fill-opacity: 0.2;
  stroke: #d2d46b;
  stroke-linecap:round;
  stroke-linejoin:round;
  stroke-width: 1.62439;
}
.l20{
  fill: #ef6158; fill-opacity: 0.2;
  stroke: #ef6158;
  stroke-linecap:round;
  stroke-linejoin:round;
  stroke-width: 1.62439;
}
.l21{
  fill: #fdb200; fill-opacity: 0.2;
  stroke: #fdb200;
  stroke-linecap:round;
  stroke-linejoin:round;
  stroke-width: 1.62439;
}
text {font-family: Fira-Code;}
</style>
  <path
     d="m 19.252017,22.95801 q 0,-0.978643 0.4813,-1.78081 0.4813,-0.81821 1.29951,-1.29951 0.81821,-0.497343 1.79685,-0.497343 0.99469,0 1.79685,0.497343 0.81821,0.4813 1.29951,1.29951 0.4813,0.802167 0.4813,1.78081 0,0.9626 -0.4813,1.78081 -0.4813,0.81821 -1.29951,1.29951 -0.80216,0.497343 -1.79685,0.497343 -0.97864,0 -1.79685,-0.497343 -0.81821,-0.4813 -1.29951,-1.29951 -0.4813,-0.81821 -0.4813,-1.78081 z"
     id="path1666"
     style="font-weight:bold;font-size:31.2845px;font-family:'Fira Code';-inkscape-font-specification:'Fira Code, Bold';fill:#d45500;fill-opacity:1;fill-rule:evenodd" />
  <path
     d="m 44.424017,0 v 29.3593 h -4.71674 V 0 Z"
     id="path1668"
     style="font-weight:bold;font-size:31.2845px;font-family:'Fira Code';-inkscape-font-specification:'Fira Code, Bold';fill:#d45500;fill-opacity:1;fill-rule:evenodd" />
  <path
     d="m 59.520807,11.150117 -0.60964,-8.968224 h 4.813 l -0.60965,8.968224 z"
     id="path1670"
     style="font-weight:bold;font-size:31.2845px;font-family:'Fira Code';-inkscape-font-specification:'Fira Code, Bold';fill:#d45500;fill-opacity:1;fill-rule:evenodd" />
  <path
     d="m 78.772827,11.150117 -0.60965,-8.968224 h 4.813 l -0.60965,8.968224 z"
     id="path1672"
     style="font-weight:bold;font-size:31.2845px;font-family:'Fira Code';-inkscape-font-specification:'Fira Code, Bold';fill:#d45500;fill-opacity:1;fill-rule:evenodd" />
  <path
     d="m 98.024837,11.150117 -0.60965,-8.968224 h 4.813003 l -0.60964,8.968224 z"
     id="path1674"
     style="font-weight:bold;font-size:31.2845px;font-family:'Fira Code';-inkscape-font-specification:'Fira Code, Bold';fill:#d45500;fill-opacity:1;fill-rule:evenodd" />
  <path
     d="m 115.51209,22.95801 q 0,-0.978643 0.4813,-1.78081 0.4813,-0.81821 1.29951,-1.29951 0.81821,-0.497343 1.79685,-0.497343 0.99469,0 1.79685,0.497343 0.81821,0.4813 1.29951,1.29951 0.4813,0.802167 0.4813,1.78081 0,0.9626 -0.4813,1.78081 -0.4813,0.81821 -1.29951,1.29951 -0.80216,0.497343 -1.79685,0.497343 -0.97864,0 -1.79685,-0.497343 -0.81821,-0.4813 -1.29951,-1.29951 -0.4813,-0.81821 -0.4813,-1.78081 z"
     id="path1676"
     style="font-weight:bold;font-size:31.2845px;font-family:'Fira Code';-inkscape-font-specification:'Fira Code, Bold';fill:#d45500;fill-opacity:1;fill-rule:evenodd" />
  <path
     d="m 140.68409,0 v 29.3593 h -4.71674 V 0 Z"
     id="path1678"
     style="font-weight:bold;font-size:31.2845px;font-family:'Fira Code';-inkscape-font-specification:'Fira Code, Bold';fill:#d45500;fill-opacity:1;fill-rule:evenodd" />
  <path
     d="m 406.36189,0 v 29.3593 h -4.71674 V 0 Z m -11.5512,0 v 29.3593 h -4.71674 V 0 Z"
     id="path1680"
     style="font-weight:bold;font-size:31.2845px;font-family:'Fira Code';-inkscape-font-specification:'Fira Code, Bold';fill:#d45500;fill-opacity:1;fill-rule:evenodd" />
  <path
     d="m 793.183,22.95801 q 0,-0.978643 0.4813,-1.78081 0.4813,-0.81821 1.29951,-1.29951 0.81821,-0.497343 1.79685,-0.497343 0.99469,0 1.8129,0.497343 0.80216,0.4813 1.28346,1.29951 0.4813,0.802167 0.4813,1.78081 0,0.9626 -0.4813,1.78081 -0.4813,0.81821 -1.28346,1.29951 -0.81821,0.497343 -1.8129,0.497343 -0.97864,0 -1.79685,-0.497343 -0.81821,-0.4813 -1.29951,-1.29951 -0.4813,-0.81821 -0.4813,-1.78081 z m 11.5512,0 q 0,-0.978643 0.4813,-1.78081 0.4813,-0.81821 1.29951,-1.29951 0.81821,-0.497343 1.79685,-0.497343 0.99469,0 1.79685,0.497343 0.81821,0.4813 1.29951,1.29951 0.4813,0.802167 0.4813,1.78081 0,0.9626 -0.4813,1.78081 -0.4813,0.81821 -1.29951,1.29951 -0.80216,0.497343 -1.79685,0.497343 -0.97864,0 -1.79685,-0.497343 -0.81821,-0.4813 -1.29951,-1.29951 -0.4813,-0.81821 -0.4813,-1.78081 z"
     id="path1682"
     style="font-weight:bold;font-size:31.2845px;font-family:'Fira Code';-inkscape-font-specification:'Fira Code, Bold';fill:#d45500;fill-opacity:1;fill-rule:evenodd" />
  <path
     d="m 833.7566,0 v 29.3593 h -4.71674 V 0 Z"
     id="path1684"
     style="font-weight:bold;font-size:31.2845px;font-family:'Fira Code';-inkscape-font-specification:'Fira Code, Bold';fill:#d45500;fill-opacity:1;fill-rule:evenodd" />
  <path
     d="m 848.85339,11.150117 -0.60964,-8.968224 h 4.813 l -0.60965,8.968224 z"
     id="path1686"
     style="font-weight:bold;font-size:31.2845px;font-family:'Fira Code';-inkscape-font-specification:'Fira Code, Bold';fill:#d45500;fill-opacity:1;fill-rule:evenodd" />
  <path
     d="m 868.10541,11.150117 -0.60965,-8.968224 h 4.813 l -0.60965,8.968224 z"
     id="path1688"
     style="font-weight:bold;font-size:31.2845px;font-family:'Fira Code';-inkscape-font-specification:'Fira Code, Bold';fill:#d45500;fill-opacity:1;fill-rule:evenodd" />
  <path
     d="m 887.35742,11.150117 -0.60965,-8.968224 h 4.813 l -0.60964,8.968224 z"
     id="path1690"
     style="font-weight:bold;font-size:31.2845px;font-family:'Fira Code';-inkscape-font-specification:'Fira Code, Bold';fill:#d45500;fill-opacity:1;fill-rule:evenodd" />
  <path
     d="m 904.84467,22.95801 q 0,-0.978643 0.4813,-1.78081 0.4813,-0.81821 1.29951,-1.29951 0.81821,-0.497343 1.79685,-0.497343 0.99469,0 1.79686,0.497343 0.81821,0.4813 1.29951,1.29951 0.4813,0.802167 0.4813,1.78081 0,0.9626 -0.4813,1.78081 -0.4813,0.81821 -1.29951,1.29951 -0.80217,0.497343 -1.79686,0.497343 -0.97864,0 -1.79685,-0.497343 -0.81821,-0.4813 -1.29951,-1.29951 -0.4813,-0.81821 -0.4813,-1.78081 z"
     id="path1692"
     style="font-weight:bold;font-size:31.2845px;font-family:'Fira Code';-inkscape-font-specification:'Fira Code, Bold';fill:#d45500;fill-opacity:1;fill-rule:evenodd" />
  <path
     d="m 930.01671,0 v 29.3593 h -4.7168 V 0 Z"
     id="path1694"
     style="font-weight:bold;font-size:31.2845px;font-family:'Fira Code';-inkscape-font-specification:'Fira Code, Bold';fill:#d45500;fill-opacity:1;fill-rule:evenodd" />
  <path
     d="m 1315.0569,0 v 29.3593 h -4.7167 V 0 Z"
     id="path1696"
     style="font-weight:bold;font-size:31.2845px;font-family:'Fira Code';-inkscape-font-specification:'Fira Code, Bold';fill:#d45500;fill-opacity:1;fill-rule:evenodd" />
  <path
     d="m 1330.1537,11.150117 -0.6097,-8.968224 h 4.813 l -0.6096,8.968224 z"
     id="path1698"
     style="font-weight:bold;font-size:31.2845px;font-family:'Fira Code';-inkscape-font-specification:'Fira Code, Bold';fill:#d45500;fill-opacity:1;fill-rule:evenodd" />
  <path
     d="m 1349.4058,11.150117 -0.6097,-8.968224 h 4.813 l -0.6096,8.968224 z"
     id="path1700"
     style="font-weight:bold;font-size:31.2845px;font-family:'Fira Code';-inkscape-font-specification:'Fira Code, Bold';fill:#d45500;fill-opacity:1;fill-rule:evenodd" />
  <path
     d="m 1388.2146,0 v 29.3593 h -4.7167 V 0 Z m -11.5512,0 v 29.3593 h -4.7167 V 0 Z"
     id="path1702"
     style="font-weight:bold;font-size:31.2845px;font-family:'Fira Code';-inkscape-font-specification:'Fira Code, Bold';fill:#d45500;fill-opacity:1;fill-rule:evenodd" />
  <path
     d="m 1407.1617,11.150117 -0.6096,-8.968224 h 4.813 l -0.6097,8.968224 z"
     id="path1704"
     style="font-weight:bold;font-size:31.2845px;font-family:'Fira Code';-inkscape-font-specification:'Fira Code, Bold';fill:#d45500;fill-opacity:1;fill-rule:evenodd" />
  <path
     d="m 1426.4138,11.150117 -0.6096,-8.968224 h 4.813 l -0.6097,8.968224 z"
     id="path1706"
     style="font-weight:bold;font-size:31.2845px;font-family:'Fira Code';-inkscape-font-specification:'Fira Code, Bold';fill:#d45500;fill-opacity:1;fill-rule:evenodd" />
  <path
     d="m 1449.8211,0 v 29.3593 h -4.7167 V 0 Z"
     id="path1708"
     style="font-weight:bold;font-size:31.2845px;font-family:'Fira Code';-inkscape-font-specification:'Fira Code, Bold';fill:#d45500;fill-opacity:1;fill-rule:evenodd" />
  <path
     d="m 1638.1859,11.150117 -0.6096,-8.968224 h 4.813 l -0.6097,8.968224 z"
     id="path1710"
     style="font-weight:bold;font-size:31.2845px;font-family:'Fira Code';-inkscape-font-specification:'Fira Code, Bold';fill:#d45500;fill-opacity:1;fill-rule:evenodd" />
  <path
     d="m 1676.9949,0 v 29.3593 h -4.7168 V 0 Z m -11.5512,0 v 29.3593 h -4.7168 V 0 Z"
     id="path1712"
     style="font-weight:bold;font-size:31.2845px;font-family:'Fira Code';-inkscape-font-specification:'Fira Code, Bold';fill:#d45500;fill-opacity:1;fill-rule:evenodd" />
  <path
     d="m 1695.942,11.150117 -0.6096,-8.968224 h 4.813 l -0.6097,8.968224 z"
     id="path1714"
     style="font-weight:bold;font-size:31.2845px;font-family:'Fira Code';-inkscape-font-specification:'Fira Code, Bold';fill:#d45500;fill-opacity:1;fill-rule:evenodd" />
  <path
     d="m 40.573617,35.884 v 29.3593 h -4.71674 V 35.884 Z m -11.5512,0 v 29.3593 h -4.71674 V 35.884 Z"
     id="path1717"
     style="font-weight:bold;font-size:31.2845px;font-family:'Fira Code';-inkscape-font-specification:'Fira Code, Bold';fill:#d45500;fill-opacity:1;fill-rule:evenodd" />
  <path
     d="m 61.606457,58.84201 q 0,-0.978643 0.4813,-1.78081 0.4813,-0.81821 1.29951,-1.29951 0.81821,-0.497343 1.79685,-0.497343 0.99469,0 1.8129,0.497343 0.80217,0.4813 1.28347,1.29951 0.4813,0.802167 0.4813,1.78081 0,0.9626 -0.4813,1.78081 -0.4813,0.81821 -1.28347,1.29951 -0.81821,0.497343 -1.8129,0.497343 -0.97864,0 -1.79685,-0.497343 -0.81821,-0.4813 -1.29951,-1.29951 -0.4813,-0.81821 -0.4813,-1.78081 z m 11.5512,0 q 0,-0.978643 0.4813,-1.78081 0.4813,-0.81821 1.29951,-1.29951 0.81821,-0.497343 1.79685,-0.497343 0.99469,0 1.79686,0.497343 0.81821,0.4813 1.29951,1.29951 0.4813,0.802167 0.4813,1.78081 0,0.9626 -0.4813,1.78081 -0.4813,0.81821 -1.29951,1.29951 -0.80217,0.497343 -1.79686,0.497343 -0.97864,0 -1.79685,-0.497343 -0.81821,-0.4813 -1.29951,-1.29951 -0.4813,-0.81821 -0.4813,-1.78081 z"
     id="path1719"
     style="font-weight:bold;font-size:31.2845px;font-family:'Fira Code';-inkscape-font-specification:'Fira Code, Bold';fill:#d45500;fill-opacity:1;fill-rule:evenodd" />
  <path
     d="m 136.52887,47.034117 -0.60965,-8.968224 h 4.813 l -0.60964,8.968224 z"
     id="path1721"
     style="font-weight:bold;font-size:31.2845px;font-family:'Fira Code';-inkscape-font-specification:'Fira Code, Bold';fill:#d45500;fill-opacity:1;fill-rule:evenodd" />
  <path
     d="m 211.80426,58.84201 q 0,-0.978643 0.4813,-1.78081 0.4813,-0.81821 1.29951,-1.29951 0.81821,-0.497343 1.79685,-0.497343 0.99469,0 1.8129,0.497343 0.80217,0.4813 1.28347,1.29951 0.4813,0.802167 0.4813,1.78081 0,0.9626 -0.4813,1.78081 -0.4813,0.81821 -1.28347,1.29951 -0.81821,0.497343 -1.8129,0.497343 -0.97864,0 -1.79685,-0.497343 -0.81821,-0.4813 -1.29951,-1.29951 -0.4813,-0.81821 -0.4813,-1.78081 z m 12.83467,0 q 0,-0.978643 0.4813,-1.78081 0.4813,-0.81821 1.29951,-1.29951 0.81821,-0.497343 1.79685,-0.497343 0.99469,0 1.79685,0.497343 0.81821,0.4813 1.29951,1.29951 0.4813,0.802167 0.4813,1.78081 0,0.9626 -0.4813,1.78081 -0.4813,0.81821 -1.29951,1.29951 -0.80216,0.497343 -1.79685,0.497343 -0.97864,0 -1.79685,-0.497343 -0.81821,-0.4813 -1.29951,-1.29951 -0.4813,-0.81821 -0.4813,-1.78081 z m -25.66934,0 q 0,-0.978643 0.4813,-1.78081 0.4813,-0.81821 1.29951,-1.29951 0.81821,-0.497343 1.79686,-0.497343 0.99468,0 1.81289,0.497343 0.80217,0.4813 1.28347,1.29951 0.4813,0.802167 0.4813,1.78081 0,0.9626 -0.4813,1.78081 -0.4813,0.81821 -1.28347,1.29951 -0.81821,0.497343 -1.81289,0.497343 -0.97865,0 -1.79686,-0.497343 -0.81821,-0.4813 -1.29951,-1.29951 -0.4813,-0.81821 -0.4813,-1.78081 z"
     id="path1723"
     style="font-weight:bold;font-size:31.2845px;font-family:'Fira Code';-inkscape-font-specification:'Fira Code, Bold';fill:#d45500;fill-opacity:1;fill-rule:evenodd" />
  <path
     d="m 288.81232,58.84201 q 0,-0.978643 0.4813,-1.78081 0.4813,-0.81821 1.29951,-1.29951 0.81821,-0.497343 1.79685,-0.497343 0.99469,0 1.8129,0.497343 0.80216,0.4813 1.28346,1.29951 0.4813,0.802167 0.4813,1.78081 0,0.9626 -0.4813,1.78081 -0.4813,0.81821 -1.28346,1.29951 -0.81821,0.497343 -1.8129,0.497343 -0.97864,0 -1.79685,-0.497343 -0.81821,-0.4813 -1.29951,-1.29951 -0.4813,-0.81821 -0.4813,-1.78081 z m 12.83466,0 q 0,-0.978643 0.4813,-1.78081 0.4813,-0.81821 1.29951,-1.29951 0.81821,-0.497343 1.79686,-0.497343 0.99468,0 1.79685,0.497343 0.81821,0.4813 1.29951,1.29951 0.4813,0.802167 0.4813,1.78081 0,0.9626 -0.4813,1.78081 -0.4813,0.81821 -1.29951,1.29951 -0.80217,0.497343 -1.79685,0.497343 -0.97865,0 -1.79686,-0.497343 -0.81821,-0.4813 -1.29951,-1.29951 -0.4813,-0.81821 -0.4813,-1.78081 z m -25.66933,0 q 0,-0.978643 0.4813,-1.78081 0.4813,-0.81821 1.29951,-1.29951 0.81821,-0.497343 1.79685,-0.497343 0.99469,0 1.8129,0.497343 0.80217,0.4813 1.28347,1.29951 0.4813,0.802167 0.4813,1.78081 0,0.9626 -0.4813,1.78081 -0.4813,0.81821 -1.28347,1.29951 -0.81821,0.497343 -1.8129,0.497343 -0.97864,0 -1.79685,-0.497343 -0.81821,-0.4813 -1.29951,-1.29951 -0.4813,-0.81821 -0.4813,-1.78081 z"
     id="path1725"
     style="font-weight:bold;font-size:31.2845px;font-family:'Fira Code';-inkscape-font-specification:'Fira Code, Bold';fill:#d45500;fill-opacity:1;fill-rule:evenodd" />
  <path
     d="m 385.07239,58.84201 q 0,-0.978643 0.4813,-1.78081 0.4813,-0.81821 1.29951,-1.29951 0.81821,-0.497343 1.79685,-0.497343 0.99469,0 1.8129,0.497343 0.80216,0.4813 1.28346,1.29951 0.4813,0.802167 0.4813,1.78081 0,0.9626 -0.4813,1.78081 -0.4813,0.81821 -1.28346,1.29951 -0.81821,0.497343 -1.8129,0.497343 -0.97864,0 -1.79685,-0.497343 -0.81821,-0.4813 -1.29951,-1.29951 -0.4813,-0.81821 -0.4813,-1.78081 z m 12.83466,0 q 0,-0.978643 0.4813,-1.78081 0.4813,-0.81821 1.29951,-1.29951 0.81821,-0.497343 1.79686,-0.497343 0.99468,0 1.79685,0.497343 0.81821,0.4813 1.29951,1.29951 0.4813,0.802167 0.4813,1.78081 0,0.9626 -0.4813,1.78081 -0.4813,0.81821 -1.29951,1.29951 -0.80217,0.497343 -1.79685,0.497343 -0.97865,0 -1.79686,-0.497343 -0.81821,-0.4813 -1.29951,-1.29951 -0.4813,-0.81821 -0.4813,-1.78081 z m -25.66933,0 q 0,-0.978643 0.4813,-1.78081 0.4813,-0.81821 1.29951,-1.29951 0.81821,-0.497343 1.79685,-0.497343 0.99469,0 1.8129,0.497343 0.80217,0.4813 1.28347,1.29951 0.4813,0.802167 0.4813,1.78081 0,0.9626 -0.4813,1.78081 -0.4813,0.81821 -1.28347,1.29951 -0.81821,0.497343 -1.8129,0.497343 -0.97864,0 -1.79685,-0.497343 -0.81821,-0.4813 -1.29951,-1.29951 -0.4813,-0.81821 -0.4813,-1.78081 z"
     id="path1727"
     style="font-weight:bold;font-size:31.2845px;font-family:'Fira Code';-inkscape-font-specification:'Fira Code, Bold';fill:#d45500;fill-opacity:1;fill-rule:evenodd" />
  <path
     d="m 500.55237,58.84201 q 0,-0.978643 0.4813,-1.78081 0.4813,-0.81821 1.29951,-1.29951 0.81821,-0.497343 1.79685,-0.497343 0.99469,0 1.79686,0.497343 0.81821,0.4813 1.29951,1.29951 0.4813,0.802167 0.4813,1.78081 0,0.9626 -0.4813,1.78081 -0.4813,0.81821 -1.29951,1.29951 -0.80217,0.497343 -1.79686,0.497343 -0.97864,0 -1.79685,-0.497343 -0.81821,-0.4813 -1.29951,-1.29951 -0.4813,-0.81821 -0.4813,-1.78081 z"
     id="path1729"
     style="font-weight:bold;font-size:31.2845px;font-family:'Fira Code';-inkscape-font-specification:'Fira Code, Bold';fill:#d45500;fill-opacity:1;fill-rule:evenodd" />
  <path
     d="m 519.80439,58.84201 q 0,-0.978643 0.4813,-1.78081 0.4813,-0.81821 1.29951,-1.29951 0.81821,-0.497343 1.79685,-0.497343 0.99469,0 1.79685,0.497343 0.81821,0.4813 1.29951,1.29951 0.4813,0.802167 0.4813,1.78081 0,0.9626 -0.4813,1.78081 -0.4813,0.81821 -1.29951,1.29951 -0.80216,0.497343 -1.79685,0.497343 -0.97864,0 -1.79685,-0.497343 -0.81821,-0.4813 -1.29951,-1.29951 -0.4813,-0.81821 -0.4813,-1.78081 z"
     id="path1731"
     style="font-weight:bold;font-size:31.2845px;font-family:'Fira Code';-inkscape-font-specification:'Fira Code, Bold';fill:#d45500;fill-opacity:1;fill-rule:evenodd" />
  <path
     d="m 539.0564,58.84201 q 0,-0.978643 0.4813,-1.78081 0.4813,-0.81821 1.29951,-1.29951 0.81821,-0.497343 1.79685,-0.497343 0.99469,0 1.79686,0.497343 0.81821,0.4813 1.29951,1.29951 0.4813,0.802167 0.4813,1.78081 0,0.9626 -0.4813,1.78081 -0.4813,0.81821 -1.29951,1.29951 -0.80217,0.497343 -1.79686,0.497343 -0.97864,0 -1.79685,-0.497343 -0.81821,-0.4813 -1.29951,-1.29951 -0.4813,-0.81821 -0.4813,-1.78081 z"
     id="path1733"
     style="font-weight:bold;font-size:31.2845px;font-family:'Fira Code';-inkscape-font-specification:'Fira Code, Bold';fill:#d45500;fill-opacity:1;fill-rule:evenodd" />
  <path
     d="m 558.30841,58.84201 q 0,-0.978643 0.4813,-1.78081 0.4813,-0.81821 1.29951,-1.29951 0.81821,-0.497343 1.79686,-0.497343 0.99468,0 1.79685,0.497343 0.81821,0.4813 1.29951,1.29951 0.4813,0.802167 0.4813,1.78081 0,0.9626 -0.4813,1.78081 -0.4813,0.81821 -1.29951,1.29951 -0.80217,0.497343 -1.79685,0.497343 -0.97865,0 -1.79686,-0.497343 -0.81821,-0.4813 -1.29951,-1.29951 -0.4813,-0.81821 -0.4813,-1.78081 z"
     id="path1735"
     style="font-weight:bold;font-size:31.2845px;font-family:'Fira Code';-inkscape-font-specification:'Fira Code, Bold';fill:#d45500;fill-opacity:1;fill-rule:evenodd" />
  <path
     d="m 654.56848,58.84201 q 0,-0.978643 0.4813,-1.78081 0.4813,-0.81821 1.29951,-1.29951 0.81821,-0.497343 1.79686,-0.497343 0.99468,0 1.79685,0.497343 0.81821,0.4813 1.29951,1.29951 0.4813,0.802167 0.4813,1.78081 0,0.9626 -0.4813,1.78081 -0.4813,0.81821 -1.29951,1.29951 -0.80217,0.497343 -1.79685,0.497343 -0.97865,0 -1.79686,-0.497343 -0.81821,-0.4813 -1.29951,-1.29951 -0.4813,-0.81821 -0.4813,-1.78081 z"
     id="path1737"
     style="font-weight:bold;font-size:31.2845px;font-family:'Fira Code';-inkscape-font-specification:'Fira Code, Bold';fill:#d45500;fill-opacity:1;fill-rule:evenodd" />
  <path
     d="m 673.8205,58.84201 q 0,-0.978643 0.4813,-1.78081 0.4813,-0.81821 1.29951,-1.29951 0.81821,-0.497343 1.79685,-0.497343 0.99469,0 1.79686,0.497343 0.81821,0.4813 1.29951,1.29951 0.4813,0.802167 0.4813,1.78081 0,0.9626 -0.4813,1.78081 -0.4813,0.81821 -1.29951,1.29951 -0.80217,0.497343 -1.79686,0.497343 -0.97864,0 -1.79685,-0.497343 -0.81821,-0.4813 -1.29951,-1.29951 -0.4813,-0.81821 -0.4813,-1.78081 z"
     id="path1739"
     style="font-weight:bold;font-size:31.2845px;font-family:'Fira Code';-inkscape-font-specification:'Fira Code, Bold';fill:#d45500;fill-opacity:1;fill-rule:evenodd" />
  <path
     d="m 693.07251,58.84201 q 0,-0.978643 0.4813,-1.78081 0.4813,-0.81821 1.29951,-1.29951 0.81821,-0.497343 1.79686,-0.497343 0.99468,0 1.79685,0.497343 0.81821,0.4813 1.29951,1.29951 0.4813,0.802167 0.4813,1.78081 0,0.9626 -0.4813,1.78081 -0.4813,0.81821 -1.29951,1.29951 -0.80217,0.497343 -1.79685,0.497343 -0.97865,0 -1.79686,-0.497343 -0.81821,-0.4813 -1.29951,-1.29951 -0.4813,-0.81821 -0.4813,-1.78081 z"
     id="path1741"
     style="font-weight:bold;font-size:31.2845px;font-family:'Fira Code';-inkscape-font-specification:'Fira Code, Bold';fill:#d45500;fill-opacity:1;fill-rule:evenodd" />
  <path
     d="m 712.32453,58.84201 q 0,-0.978643 0.4813,-1.78081 0.4813,-0.81821 1.29951,-1.29951 0.81821,-0.497343 1.79685,-0.497343 0.99469,0 1.79685,0.497343 0.81821,0.4813 1.29951,1.29951 0.4813,0.802167 0.4813,1.78081 0,0.9626 -0.4813,1.78081 -0.4813,0.81821 -1.29951,1.29951 -0.80216,0.497343 -1.79685,0.497343 -0.97864,0 -1.79685,-0.497343 -0.81821,-0.4813 -1.29951,-1.29951 -0.4813,-0.81821 -0.4813,-1.78081 z"
     id="path1743"
     style="font-weight:bold;font-size:31.2845px;font-family:'Fira Code';-inkscape-font-specification:'Fira Code, Bold';fill:#d45500;fill-opacity:1;fill-rule:evenodd" />
  <path
     d="m 770.08057,58.84201 q 0,-0.978643 0.4813,-1.78081 0.4813,-0.81821 1.29951,-1.29951 0.81821,-0.497343 1.79685,-0.497343 0.99469,0 1.79686,0.497343 0.81821,0.4813 1.29951,1.29951 0.4813,0.802167 0.4813,1.78081 0,0.9626 -0.4813,1.78081 -0.4813,0.81821 -1.29951,1.29951 -0.80217,0.497343 -1.79686,0.497343 -0.97864,0 -1.79685,-0.497343 -0.81821,-0.4813 -1.29951,-1.29951 -0.4813,-0.81821 -0.4813,-1.78081 z"
     id="path1745"
     style="font-weight:bold;font-size:31.2845px;font-family:'Fira Code';-inkscape-font-specification:'Fira Code, Bold';fill:#d45500;fill-opacity:1;fill-rule:evenodd" />
  <path
     d="m 795.25257,35.884 v 29.3593 h -4.71674 V 35.884 Z"
     id="path1747"
     style="font-weight:bold;font-size:31.2845px;font-family:'Fira Code';-inkscape-font-specification:'Fira Code, Bold';fill:#d45500;fill-opacity:1;fill-rule:evenodd" />
  <path
     d="m 810.34936,47.034117 -0.60964,-8.968224 h 4.813 l -0.60965,8.968224 z"
     id="path1749"
     style="font-weight:bold;font-size:31.2845px;font-family:'Fira Code';-inkscape-font-specification:'Fira Code, Bold';fill:#d45500;fill-opacity:1;fill-rule:evenodd" />
  <path
     d="m 925.86141,47.034117 -0.6096,-8.968224 h 4.813 l -0.6097,8.968224 z"
     id="path1751"
     style="font-weight:bold;font-size:31.2845px;font-family:'Fira Code';-inkscape-font-specification:'Fira Code, Bold';fill:#d45500;fill-opacity:1;fill-rule:evenodd" />
  <path
     d="m 1020.3567,58.84201 q 0,-0.978643 0.4813,-1.78081 0.4813,-0.81821 1.2995,-1.29951 0.8182,-0.497343 1.7968,-0.497343 0.9947,0 1.7969,0.497343 0.8182,0.4813 1.2995,1.29951 0.4813,0.802167 0.4813,1.78081 0,0.9626 -0.4813,1.78081 -0.4813,0.81821 -1.2995,1.29951 -0.8022,0.497343 -1.7969,0.497343 -0.9786,0 -1.7968,-0.497343 -0.8182,-0.4813 -1.2995,-1.29951 -0.4813,-0.81821 -0.4813,-1.78081 z"
     id="path1753"
     style="font-weight:bold;font-size:31.2845px;font-family:'Fira Code';-inkscape-font-specification:'Fira Code, Bold';fill:#d45500;fill-opacity:1;fill-rule:evenodd" />
  <path
     d="m 1039.6088,58.84201 q 0,-0.978643 0.4813,-1.78081 0.4813,-0.81821 1.2995,-1.29951 0.8182,-0.497343 1.7968,-0.497343 0.9947,0 1.7969,0.497343 0.8182,0.4813 1.2995,1.29951 0.4813,0.802167 0.4813,1.78081 0,0.9626 -0.4813,1.78081 -0.4813,0.81821 -1.2995,1.29951 -0.8022,0.497343 -1.7969,0.497343 -0.9786,0 -1.7968,-0.497343 -0.8182,-0.4813 -1.2995,-1.29951 -0.4813,-0.81821 -0.4813,-1.78081 z"
     id="path1755"
     style="font-weight:bold;font-size:31.2845px;font-family:'Fira Code';-inkscape-font-specification:'Fira Code, Bold';fill:#d45500;fill-opacity:1;fill-rule:evenodd" />
  <path
     d="m 1058.8608,58.84201 q 0,-0.978643 0.4813,-1.78081 0.4813,-0.81821 1.2995,-1.29951 0.8183,-0.497343 1.7969,-0.497343 0.9947,0 1.7968,0.497343 0.8183,0.4813 1.2996,1.29951 0.4813,0.802167 0.4813,1.78081 0,0.9626 -0.4813,1.78081 -0.4813,0.81821 -1.2996,1.29951 -0.8021,0.497343 -1.7968,0.497343 -0.9786,0 -1.7969,-0.497343 -0.8182,-0.4813 -1.2995,-1.29951 -0.4813,-0.81821 -0.4813,-1.78081 z"
     id="path1757"
     style="font-weight:bold;font-size:31.2845px;font-family:'Fira Code';-inkscape-font-specification:'Fira Code, Bold';fill:#d45500;fill-opacity:1;fill-rule:evenodd" />
  <path
     d="m 1078.1128,58.84201 q 0,-0.978643 0.4813,-1.78081 0.4813,-0.81821 1.2995,-1.29951 0.8182,-0.497343 1.7968,-0.497343 0.9947,0 1.7969,0.497343 0.8182,0.4813 1.2995,1.29951 0.4813,0.802167 0.4813,1.78081 0,0.9626 -0.4813,1.78081 -0.4813,0.81821 -1.2995,1.29951 -0.8022,0.497343 -1.7969,0.497343 -0.9786,0 -1.7968,-0.497343 -0.8182,-0.4813 -1.2995,-1.29951 -0.4813,-0.81821 -0.4813,-1.78081 z"
     id="path1759"
     style="font-weight:bold;font-size:31.2845px;font-family:'Fira Code';-inkscape-font-specification:'Fira Code, Bold';fill:#d45500;fill-opacity:1;fill-rule:evenodd" />
  <path
     d="m 1139.7192,58.84201 q 0,-0.978643 0.4813,-1.78081 0.4813,-0.81821 1.2996,-1.29951 0.8182,-0.497343 1.7968,-0.497343 0.9947,0 1.8129,0.497343 0.8022,0.4813 1.2835,1.29951 0.4813,0.802167 0.4813,1.78081 0,0.9626 -0.4813,1.78081 -0.4813,0.81821 -1.2835,1.29951 -0.8182,0.497343 -1.8129,0.497343 -0.9786,0 -1.7968,-0.497343 -0.8183,-0.4813 -1.2996,-1.29951 -0.4813,-0.81821 -0.4813,-1.78081 z m 11.5512,0 q 0,-0.978643 0.4813,-1.78081 0.4813,-0.81821 1.2996,-1.29951 0.8182,-0.497343 1.7968,-0.497343 0.9947,0 1.7969,0.497343 0.8182,0.4813 1.2995,1.29951 0.4813,0.802167 0.4813,1.78081 0,0.9626 -0.4813,1.78081 -0.4813,0.81821 -1.2995,1.29951 -0.8022,0.497343 -1.7969,0.497343 -0.9786,0 -1.7968,-0.497343 -0.8183,-0.4813 -1.2996,-1.29951 -0.4813,-0.81821 -0.4813,-1.78081 z"
     id="path1761"
     style="font-weight:bold;font-size:31.2845px;font-family:'Fira Code';-inkscape-font-specification:'Fira Code, Bold';fill:#d45500;fill-opacity:1;fill-rule:evenodd" />
  <path
     d="m 1212.909,58.84201 q 0,-0.978643 0.4813,-1.78081 0.4813,-0.81821 1.2995,-1.29951 0.8182,-0.497343 1.7968,-0.497343 0.9947,0 1.8129,0.497343 0.8022,0.4813 1.2835,1.29951 0.4813,0.802167 0.4813,1.78081 0,0.9626 -0.4813,1.78081 -0.4813,0.81821 -1.2835,1.29951 -0.8182,0.497343 -1.8129,0.497343 -0.9786,0 -1.7968,-0.497343 -0.8182,-0.4813 -1.2995,-1.29951 -0.4813,-0.81821 -0.4813,-1.78081 z m 12.8347,0 q 0,-0.978643 0.4813,-1.78081 0.4813,-0.81821 1.2995,-1.29951 0.8182,-0.497343 1.7968,-0.497343 0.9947,0 1.7969,0.497343 0.8182,0.4813 1.2995,1.29951 0.4813,0.802167 0.4813,1.78081 0,0.9626 -0.4813,1.78081 -0.4813,0.81821 -1.2995,1.29951 -0.8022,0.497343 -1.7969,0.497343 -0.9786,0 -1.7968,-0.497343 -0.8182,-0.4813 -1.2995,-1.29951 -0.4813,-0.81821 -0.4813,-1.78081 z m -25.6694,0 q 0,-0.978643 0.4813,-1.78081 0.4813,-0.81821 1.2995,-1.29951 0.8182,-0.497343 1.7969,-0.497343 0.9947,0 1.8129,0.497343 0.8021,0.4813 1.2834,1.29951 0.4813,0.802167 0.4813,1.78081 0,0.9626 -0.4813,1.78081 -0.4813,0.81821 -1.2834,1.29951 -0.8182,0.497343 -1.8129,0.497343 -0.9787,0 -1.7969,-0.497343 -0.8182,-0.4813 -1.2995,-1.29951 -0.4813,-0.81821 -0.4813,-1.78081 z"
     id="path1763"
     style="font-weight:bold;font-size:31.2845px;font-family:'Fira Code';-inkscape-font-specification:'Fira Code, Bold';fill:#d45500;fill-opacity:1;fill-rule:evenodd" />
  <path
     d="m 1388.2146,35.884 v 29.3593 h -4.7167 V 35.884 Z m -11.5512,0 v 29.3593 h -4.7167 V 35.884 Z"
     id="path1765"
     style="font-weight:bold;font-size:31.2845px;font-family:'Fira Code';-inkscape-font-specification:'Fira Code, Bold';fill:#d45500;fill-opacity:1;fill-rule:evenodd" />
  <path
     d="m 1520.9092,58.84201 q 0,-0.978643 0.4813,-1.78081 0.4813,-0.81821 1.2995,-1.29951 0.8182,-0.497343 1.7968,-0.497343 0.9947,0 1.7969,0.497343 0.8182,0.4813 1.2995,1.29951 0.4813,0.802167 0.4813,1.78081 0,0.9626 -0.4813,1.78081 -0.4813,0.81821 -1.2995,1.29951 -0.8022,0.497343 -1.7969,0.497343 -0.9786,0 -1.7968,-0.497343 -0.8182,-0.4813 -1.2995,-1.29951 -0.4813,-0.81821 -0.4813,-1.78081 z"
     id="path1767"
     style="font-weight:bold;font-size:31.2845px;font-family:'Fira Code';-inkscape-font-specification:'Fira Code, Bold';fill:#d45500;fill-opacity:1;fill-rule:evenodd" />
  <path
     d="m 1540.1611,58.84201 q 0,-0.978643 0.4813,-1.78081 0.4813,-0.81821 1.2995,-1.29951 0.8182,-0.497343 1.7969,-0.497343 0.9947,0 1.7968,0.497343 0.8183,0.4813 1.2996,1.29951 0.4813,0.802167 0.4813,1.78081 0,0.9626 -0.4813,1.78081 -0.4813,0.81821 -1.2996,1.29951 -0.8021,0.497343 -1.7968,0.497343 -0.9787,0 -1.7969,-0.497343 -0.8182,-0.4813 -1.2995,-1.29951 -0.4813,-0.81821 -0.4813,-1.78081 z"
     id="path1769"
     style="font-weight:bold;font-size:31.2845px;font-family:'Fira Code';-inkscape-font-specification:'Fira Code, Bold';fill:#d45500;fill-opacity:1;fill-rule:evenodd" />
  <path
     d="m 1559.4131,58.84201 q 0,-0.978643 0.4813,-1.78081 0.4813,-0.81821 1.2995,-1.29951 0.8182,-0.497343 1.7968,-0.497343 0.9947,0 1.7969,0.497343 0.8182,0.4813 1.2995,1.29951 0.4813,0.802167 0.4813,1.78081 0,0.9626 -0.4813,1.78081 -0.4813,0.81821 -1.2995,1.29951 -0.8022,0.497343 -1.7969,0.497343 -0.9786,0 -1.7968,-0.497343 -0.8182,-0.4813 -1.2995,-1.29951 -0.4813,-0.81821 -0.4813,-1.78081 z"
     id="path1771"
     style="font-weight:bold;font-size:31.2845px;font-family:'Fira Code';-inkscape-font-specification:'Fira Code, Bold';fill:#d45500;fill-opacity:1;fill-rule:evenodd" />
  <path
     d="m 1578.6652,58.84201 q 0,-0.978643 0.4813,-1.78081 0.4813,-0.81821 1.2995,-1.29951 0.8182,-0.497343 1.7968,-0.497343 0.9947,0 1.7969,0.497343 0.8182,0.4813 1.2995,1.29951 0.4813,0.802167 0.4813,1.78081 0,0.9626 -0.4813,1.78081 -0.4813,0.81821 -1.2995,1.29951 -0.8022,0.497343 -1.7969,0.497343 -0.9786,0 -1.7968,-0.497343 -0.8182,-0.4813 -1.2995,-1.29951 -0.4813,-0.81821 -0.4813,-1.78081 z"
     id="path1773"
     style="font-weight:bold;font-size:31.2845px;font-family:'Fira Code';-inkscape-font-specification:'Fira Code, Bold';fill:#d45500;fill-opacity:1;fill-rule:evenodd" />
  <path
     d="m 1676.9949,35.884 v 29.3593 h -4.7168 V 35.884 Z m -11.5512,0 v 29.3593 h -4.7168 V 35.884 Z"
     id="path1775"
     style="font-weight:bold;font-size:31.2845px;font-family:'Fira Code';-inkscape-font-specification:'Fira Code, Bold';fill:#d45500;fill-opacity:1;fill-rule:evenodd" />
  <path
     d="m 40.268797,82.917117 -0.60965,-8.968224 h 4.813 l -0.60964,8.968224 z"
     id="path1778"
     style="font-weight:bold;font-size:31.2845px;font-family:'Fira Code';-inkscape-font-specification:'Fira Code, Bold';fill:#d45500;fill-opacity:1;fill-rule:evenodd" />
  <path
     d="m 59.520807,82.917117 -0.60964,-8.968224 h 4.813 l -0.60965,8.968224 z"
     id="path1780"
     style="font-weight:bold;font-size:31.2845px;font-family:'Fira Code';-inkscape-font-specification:'Fira Code, Bold';fill:#d45500;fill-opacity:1;fill-rule:evenodd" />
  <path
     d="m 102.18008,71.767 v 29.3593 H 97.463337 V 71.767 Z m -19.252003,0 v 29.3593 h -4.71674 V 71.767 Z m 38.504003,0 v 29.3593 h -4.71674 V 71.767 Z"
     id="path1782"
     style="font-weight:bold;font-size:31.2845px;font-family:'Fira Code';-inkscape-font-specification:'Fira Code, Bold';fill:#d45500;fill-opacity:1;fill-rule:evenodd" />
  <path
     d="m 134.7641,94.72501 q 0,-0.978643 0.4813,-1.78081 0.4813,-0.81821 1.29951,-1.29951 0.81821,-0.497343 1.79686,-0.497343 0.99468,0 1.79685,0.497343 0.81821,0.4813 1.29951,1.29951 0.4813,0.802167 0.4813,1.78081 0,0.9626 -0.4813,1.78081 -0.4813,0.81821 -1.29951,1.29951 -0.80217,0.497343 -1.79685,0.497343 -0.97865,0 -1.79686,-0.497343 -0.81821,-0.4813 -1.29951,-1.29951 -0.4813,-0.81821 -0.4813,-1.78081 z"
     id="path1784"
     style="font-weight:bold;font-size:31.2845px;font-family:'Fira Code';-inkscape-font-specification:'Fira Code, Bold';fill:#d45500;fill-opacity:1;fill-rule:evenodd" />
  <path
     d="m 233.09376,71.767 v 29.3593 h -4.71674 V 71.767 Z m -11.5512,0 v 29.3593 h -4.71674 V 71.767 Z"
     id="path1786"
     style="font-weight:bold;font-size:31.2845px;font-family:'Fira Code';-inkscape-font-specification:'Fira Code, Bold';fill:#d45500;fill-opacity:1;fill-rule:evenodd" />
  <path
     d="m 252.04095,82.917117 -0.60964,-8.968224 h 4.813 l -0.60965,8.968224 z"
     id="path1788"
     style="font-weight:bold;font-size:31.2845px;font-family:'Fira Code';-inkscape-font-specification:'Fira Code, Bold';fill:#d45500;fill-opacity:1;fill-rule:evenodd" />
  <path
     d="m 329.35383,71.767 v 29.3593 h -4.71674 V 71.767 Z m -11.5512,0 v 29.3593 h -4.71674 V 71.767 Z"
     id="path1790"
     style="font-weight:bold;font-size:31.2845px;font-family:'Fira Code';-inkscape-font-specification:'Fira Code, Bold';fill:#d45500;fill-opacity:1;fill-rule:evenodd" />
  <path
     d="m 406.36189,71.767 v 29.3593 h -4.71674 V 71.767 Z m -11.5512,0 v 29.3593 h -4.71674 V 71.767 Z"
     id="path1792"
     style="font-weight:bold;font-size:31.2845px;font-family:'Fira Code';-inkscape-font-specification:'Fira Code, Bold';fill:#d45500;fill-opacity:1;fill-rule:evenodd" />
  <path
     d="m 462.04834,94.72501 q 0,-0.978643 0.4813,-1.78081 0.4813,-0.81821 1.29951,-1.29951 0.81821,-0.497343 1.79686,-0.497343 0.99468,0 1.79685,0.497343 0.81821,0.4813 1.29951,1.29951 0.4813,0.802167 0.4813,1.78081 0,0.9626 -0.4813,1.78081 -0.4813,0.81821 -1.29951,1.29951 -0.80217,0.497343 -1.79685,0.497343 -0.97865,0 -1.79686,-0.497343 -0.81821,-0.4813 -1.29951,-1.29951 -0.4813,-0.81821 -0.4813,-1.78081 z"
     id="path1794"
     style="font-weight:bold;font-size:31.2845px;font-family:'Fira Code';-inkscape-font-specification:'Fira Code, Bold';fill:#d45500;fill-opacity:1;fill-rule:evenodd" />
  <path
     d="m 487.22035,71.767 v 29.3593 h -4.71674 V 71.767 Z"
     id="path1796"
     style="font-weight:bold;font-size:31.2845px;font-family:'Fira Code';-inkscape-font-specification:'Fira Code, Bold';fill:#d45500;fill-opacity:1;fill-rule:evenodd" />
  <path
     d="m 560.07318,82.917117 -0.60965,-8.968224 h 4.813 l -0.60964,8.968224 z"
     id="path1798"
     style="font-weight:bold;font-size:31.2845px;font-family:'Fira Code';-inkscape-font-specification:'Fira Code, Bold';fill:#d45500;fill-opacity:1;fill-rule:evenodd" />
  <path
     d="m 579.32519,82.917117 -0.60964,-8.968224 h 4.813 l -0.60965,8.968224 z"
     id="path1800"
     style="font-weight:bold;font-size:31.2845px;font-family:'Fira Code';-inkscape-font-specification:'Fira Code, Bold';fill:#d45500;fill-opacity:1;fill-rule:evenodd" />
  <path
     d="m 616.06446,94.72501 q 0,-0.978643 0.4813,-1.78081 0.4813,-0.81821 1.29951,-1.29951 0.81821,-0.497343 1.79685,-0.497343 0.99469,0 1.79685,0.497343 0.81821,0.4813 1.29951,1.29951 0.4813,0.802167 0.4813,1.78081 0,0.9626 -0.4813,1.78081 -0.4813,0.81821 -1.29951,1.29951 -0.80216,0.497343 -1.79685,0.497343 -0.97864,0 -1.79685,-0.497343 -0.81821,-0.4813 -1.29951,-1.29951 -0.4813,-0.81821 -0.4813,-1.78081 z"
     id="path1802"
     style="font-weight:bold;font-size:31.2845px;font-family:'Fira Code';-inkscape-font-specification:'Fira Code, Bold';fill:#d45500;fill-opacity:1;fill-rule:evenodd" />
  <path
     d="m 641.23646,71.767 v 29.3593 h -4.71674 V 71.767 Z"
     id="path1804"
     style="font-weight:bold;font-size:31.2845px;font-family:'Fira Code';-inkscape-font-specification:'Fira Code, Bold';fill:#d45500;fill-opacity:1;fill-rule:evenodd" />
  <path
     d="m 673.8526,94.72501 q 0,-0.978643 0.4813,-1.78081 0.4813,-0.81821 1.29951,-1.29951 0.81821,-0.497343 1.79685,-0.497343 0.99469,0 1.8129,0.497343 0.80217,0.4813 1.28347,1.29951 0.4813,0.802167 0.4813,1.78081 0,0.9626 -0.4813,1.78081 -0.4813,0.81821 -1.28347,1.29951 -0.81821,0.497343 -1.8129,0.497343 -0.97864,0 -1.79685,-0.497343 -0.81821,-0.4813 -1.29951,-1.29951 -0.4813,-0.81821 -0.4813,-1.78081 z m 12.83467,0 q 0,-0.978643 0.4813,-1.78081 0.4813,-0.81821 1.29951,-1.29951 0.81821,-0.497343 1.79685,-0.497343 0.99469,0 1.79685,0.497343 0.81821,0.4813 1.29951,1.29951 0.4813,0.802167 0.4813,1.78081 0,0.9626 -0.4813,1.78081 -0.4813,0.81821 -1.29951,1.29951 -0.80216,0.497343 -1.79685,0.497343 -0.97864,0 -1.79685,-0.497343 -0.81821,-0.4813 -1.29951,-1.29951 -0.4813,-0.81821 -0.4813,-1.78081 z m -25.66934,0 q 0,-0.978643 0.4813,-1.78081 0.4813,-0.81821 1.29951,-1.29951 0.81821,-0.497343 1.79686,-0.497343 0.99468,0 1.81289,0.497343 0.80217,0.4813 1.28347,1.29951 0.4813,0.802167 0.4813,1.78081 0,0.9626 -0.4813,1.78081 -0.4813,0.81821 -1.28347,1.29951 -0.81821,0.497343 -1.81289,0.497343 -0.97865,0 -1.79686,-0.497343 -0.81821,-0.4813 -1.29951,-1.29951 -0.4813,-0.81821 -0.4813,-1.78081 z"
     id="path1806"
     style="font-weight:bold;font-size:31.2845px;font-family:'Fira Code';-inkscape-font-specification:'Fira Code, Bold';fill:#d45500;fill-opacity:1;fill-rule:evenodd" />
  <path
     d="m 733.64613,71.767 v 29.3593 h -4.71674 V 71.767 Z m -11.5512,0 v 29.3593 h -4.71674 V 71.767 Z"
     id="path1808"
     style="font-weight:bold;font-size:31.2845px;font-family:'Fira Code';-inkscape-font-specification:'Fira Code, Bold';fill:#d45500;fill-opacity:1;fill-rule:evenodd" />
  <path
     d="m 791.40217,71.767 v 29.3593 h -4.71674 V 71.767 Z m -11.5512,0 v 29.3593 h -4.71674 V 71.767 Z"
     id="path1810"
     style="font-weight:bold;font-size:31.2845px;font-family:'Fira Code';-inkscape-font-specification:'Fira Code, Bold';fill:#d45500;fill-opacity:1;fill-rule:evenodd" />
  <path
     d="m 885.59265,94.72501 q 0,-0.978643 0.4813,-1.78081 0.4813,-0.81821 1.29951,-1.29951 0.81821,-0.497343 1.79686,-0.497343 0.99468,0 1.79685,0.497343 0.81821,0.4813 1.29951,1.29951 0.4813,0.802167 0.4813,1.78081 0,0.9626 -0.4813,1.78081 -0.4813,0.81821 -1.29951,1.29951 -0.80217,0.497343 -1.79685,0.497343 -0.97865,0 -1.79686,-0.497343 -0.81821,-0.4813 -1.29951,-1.29951 -0.4813,-0.81821 -0.4813,-1.78081 z"
     id="path1812"
     style="font-weight:bold;font-size:31.2845px;font-family:'Fira Code';-inkscape-font-specification:'Fira Code, Bold';fill:#d45500;fill-opacity:1;fill-rule:evenodd" />
  <path
     d="m 904.84467,94.72501 q 0,-0.978643 0.4813,-1.78081 0.4813,-0.81821 1.29951,-1.29951 0.81821,-0.497343 1.79685,-0.497343 0.99469,0 1.79686,0.497343 0.81821,0.4813 1.29951,1.29951 0.4813,0.802167 0.4813,1.78081 0,0.9626 -0.4813,1.78081 -0.4813,0.81821 -1.29951,1.29951 -0.80217,0.497343 -1.79686,0.497343 -0.97864,0 -1.79685,-0.497343 -0.81821,-0.4813 -1.29951,-1.29951 -0.4813,-0.81821 -0.4813,-1.78081 z"
     id="path1814"
     style="font-weight:bold;font-size:31.2845px;font-family:'Fira Code';-inkscape-font-specification:'Fira Code, Bold';fill:#d45500;fill-opacity:1;fill-rule:evenodd" />
  <path
     d="m 924.09671,94.72501 q 0,-0.978643 0.4813,-1.78081 0.4813,-0.81821 1.2995,-1.29951 0.8182,-0.497343 1.7968,-0.497343 0.9947,0 1.7969,0.497343 0.8182,0.4813 1.2995,1.29951 0.4813,0.802167 0.4813,1.78081 0,0.9626 -0.4813,1.78081 -0.4813,0.81821 -1.2995,1.29951 -0.8022,0.497343 -1.7969,0.497343 -0.9786,0 -1.7968,-0.497343 -0.8182,-0.4813 -1.2995,-1.29951 -0.4813,-0.81821 -0.4813,-1.78081 z"
     id="path1816"
     style="font-weight:bold;font-size:31.2845px;font-family:'Fira Code';-inkscape-font-specification:'Fira Code, Bold';fill:#d45500;fill-opacity:1;fill-rule:evenodd" />
  <path
     d="m 943.34871,94.72501 q 0,-0.978643 0.4813,-1.78081 0.4813,-0.81821 1.2995,-1.29951 0.8182,-0.497343 1.7969,-0.497343 0.9946,0 1.7968,0.497343 0.8182,0.4813 1.2995,1.29951 0.4813,0.802167 0.4813,1.78081 0,0.9626 -0.4813,1.78081 -0.4813,0.81821 -1.2995,1.29951 -0.8022,0.497343 -1.7968,0.497343 -0.9787,0 -1.7969,-0.497343 -0.8182,-0.4813 -1.2995,-1.29951 -0.4813,-0.81821 -0.4813,-1.78081 z"
     id="path1818"
     style="font-weight:bold;font-size:31.2845px;font-family:'Fira Code';-inkscape-font-specification:'Fira Code, Bold';fill:#d45500;fill-opacity:1;fill-rule:evenodd" />
  <path
     d="m 981.85281,94.72501 q 0,-0.978643 0.4813,-1.78081 0.4813,-0.81821 1.2995,-1.29951 0.8182,-0.497343 1.7968,-0.497343 0.9947,0 1.7969,0.497343 0.8182,0.4813 1.2995,1.29951 0.4813,0.802167 0.4813,1.78081 0,0.9626 -0.4813,1.78081 -0.4813,0.81821 -1.2995,1.29951 -0.8022,0.497343 -1.7969,0.497343 -0.9786,0 -1.7968,-0.497343 -0.8182,-0.4813 -1.2995,-1.29951 -0.4813,-0.81821 -0.4813,-1.78081 z"
     id="path1820"
     style="font-weight:bold;font-size:31.2845px;font-family:'Fira Code';-inkscape-font-specification:'Fira Code, Bold';fill:#d45500;fill-opacity:1;fill-rule:evenodd" />
  <path
     d="m 1007.0247,71.767 v 29.3593 h -4.7167 V 71.767 Z"
     id="path1822"
     style="font-weight:bold;font-size:31.2845px;font-family:'Fira Code';-inkscape-font-specification:'Fira Code, Bold';fill:#d45500;fill-opacity:1;fill-rule:evenodd" />
  <path
     d="m 1039.6409,94.72501 q 0,-0.978643 0.4813,-1.78081 0.4813,-0.81821 1.2995,-1.29951 0.8182,-0.497343 1.7969,-0.497343 0.9947,0 1.8129,0.497343 0.8021,0.4813 1.2834,1.29951 0.4813,0.802167 0.4813,1.78081 0,0.9626 -0.4813,1.78081 -0.4813,0.81821 -1.2834,1.29951 -0.8182,0.497343 -1.8129,0.497343 -0.9787,0 -1.7969,-0.497343 -0.8182,-0.4813 -1.2995,-1.29951 -0.4813,-0.81821 -0.4813,-1.78081 z m 12.8347,0 q 0,-0.978643 0.4813,-1.78081 0.4813,-0.81821 1.2995,-1.29951 0.8182,-0.497343 1.7968,-0.497343 0.9947,0 1.7969,0.497343 0.8182,0.4813 1.2995,1.29951 0.4813,0.802167 0.4813,1.78081 0,0.9626 -0.4813,1.78081 -0.4813,0.81821 -1.2995,1.29951 -0.8022,0.497343 -1.7969,0.497343 -0.9786,0 -1.7968,-0.497343 -0.8182,-0.4813 -1.2995,-1.29951 -0.4813,-0.81821 -0.4813,-1.78081 z m -25.6693,0 q 0,-0.978643 0.4813,-1.78081 0.4813,-0.81821 1.2995,-1.29951 0.8182,-0.497343 1.7968,-0.497343 0.9947,0 1.8129,0.497343 0.8022,0.4813 1.2835,1.29951 0.4813,0.802167 0.4813,1.78081 0,0.9626 -0.4813,1.78081 -0.4813,0.81821 -1.2835,1.29951 -0.8182,0.497343 -1.8129,0.497343 -0.9786,0 -1.7968,-0.497343 -0.8182,-0.4813 -1.2995,-1.29951 -0.4813,-0.81821 -0.4813,-1.78081 z"
     id="path1824"
     style="font-weight:bold;font-size:31.2845px;font-family:'Fira Code';-inkscape-font-specification:'Fira Code, Bold';fill:#d45500;fill-opacity:1;fill-rule:evenodd" />
  <path
     d="m 1099.4343,71.767 v 29.3593 h -4.7167 V 71.767 Z m -11.5512,0 v 29.3593 h -4.7167 V 71.767 Z"
     id="path1826"
     style="font-weight:bold;font-size:31.2845px;font-family:'Fira Code';-inkscape-font-specification:'Fira Code, Bold';fill:#d45500;fill-opacity:1;fill-rule:evenodd" />
  <path
     d="m 1176.4424,71.767 v 29.3593 h -4.7168 V 71.767 Z m -11.5512,0 v 29.3593 h -4.7168 V 71.767 Z"
     id="path1828"
     style="font-weight:bold;font-size:31.2845px;font-family:'Fira Code';-inkscape-font-specification:'Fira Code, Bold';fill:#d45500;fill-opacity:1;fill-rule:evenodd" />
  <path
     d="m 1253.4504,71.767 v 29.3593 h -4.7167 V 71.767 Z m -11.5512,0 v 29.3593 h -4.7167 V 71.767 Z"
     id="path1830"
     style="font-weight:bold;font-size:31.2845px;font-family:'Fira Code';-inkscape-font-specification:'Fira Code, Bold';fill:#d45500;fill-opacity:1;fill-rule:evenodd" />
  <path
     d="m 1388.2146,71.767 v 29.3593 h -4.7167 V 71.767 Z m -11.5512,0 v 29.3593 h -4.7167 V 71.767 Z"
     id="path1832"
     style="font-weight:bold;font-size:31.2845px;font-family:'Fira Code';-inkscape-font-specification:'Fira Code, Bold';fill:#d45500;fill-opacity:1;fill-rule:evenodd" />
  <path
     d="m 1482.405,94.72501 q 0,-0.978643 0.4813,-1.78081 0.4813,-0.81821 1.2995,-1.29951 0.8182,-0.497343 1.7969,-0.497343 0.9947,0 1.7968,0.497343 0.8182,0.4813 1.2995,1.29951 0.4813,0.802167 0.4813,1.78081 0,0.9626 -0.4813,1.78081 -0.4813,0.81821 -1.2995,1.29951 -0.8021,0.497343 -1.7968,0.497343 -0.9787,0 -1.7969,-0.497343 -0.8182,-0.4813 -1.2995,-1.29951 -0.4813,-0.81821 -0.4813,-1.78081 z"
     id="path1834"
     style="font-weight:bold;font-size:31.2845px;font-family:'Fira Code';-inkscape-font-specification:'Fira Code, Bold';fill:#d45500;fill-opacity:1;fill-rule:evenodd" />
  <path
     d="m 1507.5771,71.767 v 29.3593 h -4.7168 V 71.767 Z"
     id="path1836"
     style="font-weight:bold;font-size:31.2845px;font-family:'Fira Code';-inkscape-font-specification:'Fira Code, Bold';fill:#d45500;fill-opacity:1;fill-rule:evenodd" />
  <path
     d="m 1580.4299,82.917117 -0.6096,-8.968224 h 4.813 l -0.6097,8.968224 z"
     id="path1838"
     style="font-weight:bold;font-size:31.2845px;font-family:'Fira Code';-inkscape-font-specification:'Fira Code, Bold';fill:#d45500;fill-opacity:1;fill-rule:evenodd" />
  <path
     d="m 1599.682,82.917117 -0.6097,-8.968224 h 4.813 l -0.6096,8.968224 z"
     id="path1840"
     style="font-weight:bold;font-size:31.2845px;font-family:'Fira Code';-inkscape-font-specification:'Fira Code, Bold';fill:#d45500;fill-opacity:1;fill-rule:evenodd" />
  <path
     d="m 1676.9949,71.767 v 29.3593 h -4.7168 V 71.767 Z m -11.5512,0 v 29.3593 h -4.7168 V 71.767 Z"
     id="path1842"
     style="font-weight:bold;font-size:31.2845px;font-family:'Fira Code';-inkscape-font-specification:'Fira Code, Bold';fill:#d45500;fill-opacity:1;fill-rule:evenodd" />
  <path
     d="m 0,130.60801 q 0,-0.97864 0.4813,-1.78081 0.4813,-0.81821 1.29951,-1.29951 0.81821,-0.49734 1.796854,-0.49734 0.994686,0 1.796853,0.49734 0.81821,0.4813 1.29951,1.29951 0.4813,0.80217 0.4813,1.78081 0,0.9626 -0.4813,1.78081 -0.4813,0.81821 -1.29951,1.29951 -0.802167,0.49734 -1.796853,0.49734 -0.978644,0 -1.796854,-0.49734 Q 0.9626,133.20703 0.4813,132.38882 0,131.57061 0,130.60801 Z"
     id="path1845"
     style="font-weight:bold;font-size:31.2845px;font-family:'Fira Code';-inkscape-font-specification:'Fira Code, Bold';fill:#d45500;fill-opacity:1;fill-rule:evenodd" />
  <path
     d="m 117.27685,118.80012 -0.60964,-8.96823 h 4.813 l -0.60965,8.96823 z"
     id="path1847"
     style="font-weight:bold;font-size:31.2845px;font-family:'Fira Code';-inkscape-font-specification:'Fira Code, Bold';fill:#d45500;fill-opacity:1;fill-rule:evenodd" />
  <path
     d="m 156.08571,107.65 v 29.3593 h -4.71674 V 107.65 Z m -11.5512,0 v 29.3593 h -4.71674 V 107.65 Z"
     id="path1849"
     style="font-weight:bold;font-size:31.2845px;font-family:'Fira Code';-inkscape-font-specification:'Fira Code, Bold';fill:#d45500;fill-opacity:1;fill-rule:evenodd" />
  <path
     d="m 233.09376,107.65 v 29.3593 h -4.71674 V 107.65 Z m -11.5512,0 v 29.3593 h -4.71674 V 107.65 Z"
     id="path1851"
     style="font-weight:bold;font-size:31.2845px;font-family:'Fira Code';-inkscape-font-specification:'Fira Code, Bold';fill:#d45500;fill-opacity:1;fill-rule:evenodd" />
  <path
     d="m 333.20423,107.65 v 29.3593 h -4.71674 V 107.65 Z"
     id="path1853"
     style="font-weight:bold;font-size:31.2845px;font-family:'Fira Code';-inkscape-font-specification:'Fira Code, Bold';fill:#d45500;fill-opacity:1;fill-rule:evenodd" />
  <path
     d="m 406.36189,107.65 v 29.3593 h -4.71674 V 107.65 Z m -11.5512,0 v 29.3593 h -4.71674 V 107.65 Z"
     id="path1855"
     style="font-weight:bold;font-size:31.2845px;font-family:'Fira Code';-inkscape-font-specification:'Fira Code, Bold';fill:#d45500;fill-opacity:1;fill-rule:evenodd" />
  <path
     d="m 483.36995,107.65 v 29.3593 h -4.71674 V 107.65 Z m -11.5512,0 v 29.3593 h -4.71674 V 107.65 Z"
     id="path1857"
     style="font-weight:bold;font-size:31.2845px;font-family:'Fira Code';-inkscape-font-specification:'Fira Code, Bold';fill:#d45500;fill-opacity:1;fill-rule:evenodd" />
  <path
     d="m 637.38606,107.65 v 29.3593 h -4.71674 V 107.65 Z m -11.5512,0 v 29.3593 h -4.71674 V 107.65 Z"
     id="path1859"
     style="font-weight:bold;font-size:31.2845px;font-family:'Fira Code';-inkscape-font-specification:'Fira Code, Bold';fill:#d45500;fill-opacity:1;fill-rule:evenodd" />
  <path
     d="m 771.84534,118.80012 -0.60965,-8.96823 h 4.813 l -0.60965,8.96823 z"
     id="path1861"
     style="font-weight:bold;font-size:31.2845px;font-family:'Fira Code';-inkscape-font-specification:'Fira Code, Bold';fill:#d45500;fill-opacity:1;fill-rule:evenodd" />
  <path
     d="m 795.25257,107.65 v 29.3593 h -4.71674 V 107.65 Z"
     id="path1863"
     style="font-weight:bold;font-size:31.2845px;font-family:'Fira Code';-inkscape-font-specification:'Fira Code, Bold';fill:#d45500;fill-opacity:1;fill-rule:evenodd" />
  <path
     d="m 808.5846,130.60801 q 0,-0.97864 0.4813,-1.78081 0.4813,-0.81821 1.29951,-1.29951 0.81821,-0.49734 1.79685,-0.49734 0.99469,0 1.79685,0.49734 0.81821,0.4813 1.29951,1.29951 0.4813,0.80217 0.4813,1.78081 0,0.9626 -0.4813,1.78081 -0.4813,0.81821 -1.29951,1.29951 -0.80216,0.49734 -1.79685,0.49734 -0.97864,0 -1.79685,-0.49734 -0.81821,-0.4813 -1.29951,-1.29951 -0.4813,-0.81821 -0.4813,-1.78081 z"
     id="path1865"
     style="font-weight:bold;font-size:31.2845px;font-family:'Fira Code';-inkscape-font-specification:'Fira Code, Bold';fill:#d45500;fill-opacity:1;fill-rule:evenodd" />
  <path
     d="m 926.16631,107.65 v 29.3593 h -4.7168 V 107.65 Z m -11.55124,0 v 29.3593 h -4.71674 V 107.65 Z"
     id="path1867"
     style="font-weight:bold;font-size:31.2845px;font-family:'Fira Code';-inkscape-font-specification:'Fira Code, Bold';fill:#d45500;fill-opacity:1;fill-rule:evenodd" />
  <path
     d="m 1003.1743,107.65 v 29.3593 h -4.71669 V 107.65 Z m -11.55119,0 v 29.3593 h -4.7167 V 107.65 Z"
     id="path1869"
     style="font-weight:bold;font-size:31.2845px;font-family:'Fira Code';-inkscape-font-specification:'Fira Code, Bold';fill:#d45500;fill-opacity:1;fill-rule:evenodd" />
  <path
     d="m 1176.4424,107.65 v 29.3593 h -4.7168 V 107.65 Z m -11.5512,0 v 29.3593 h -4.7168 V 107.65 Z"
     id="path1871"
     style="font-weight:bold;font-size:31.2845px;font-family:'Fira Code';-inkscape-font-specification:'Fira Code, Bold';fill:#d45500;fill-opacity:1;fill-rule:evenodd" />
  <path
     d="m 1253.4504,107.65 v 29.3593 h -4.7167 V 107.65 Z m -11.5512,0 v 29.3593 h -4.7167 V 107.65 Z"
     id="path1873"
     style="font-weight:bold;font-size:31.2845px;font-family:'Fira Code';-inkscape-font-specification:'Fira Code, Bold';fill:#d45500;fill-opacity:1;fill-rule:evenodd" />
  <path
     d="m 1388.2146,107.65 v 29.3593 h -4.7167 V 107.65 Z m -11.5512,0 v 29.3593 h -4.7167 V 107.65 Z"
     id="path1875"
     style="font-weight:bold;font-size:31.2845px;font-family:'Fira Code';-inkscape-font-specification:'Fira Code, Bold';fill:#d45500;fill-opacity:1;fill-rule:evenodd" />
  <path
     d="m 1503.7267,107.65 v 29.3593 h -4.7168 V 107.65 Z m -11.5512,0 v 29.3593 h -4.7168 V 107.65 Z"
     id="path1877"
     style="font-weight:bold;font-size:31.2845px;font-family:'Fira Code';-inkscape-font-specification:'Fira Code, Bold';fill:#d45500;fill-opacity:1;fill-rule:evenodd" />
  <path
     d="m 1676.9949,107.65 v 29.3593 h -4.7168 V 107.65 Z m -11.5512,0 v 29.3593 h -4.7168 V 107.65 Z"
     id="path1879"
     style="font-weight:bold;font-size:31.2845px;font-family:'Fira Code';-inkscape-font-specification:'Fira Code, Bold';fill:#d45500;fill-opacity:1;fill-rule:evenodd" />
  <path
     d="m 5.91999,143.533 v 29.3593 H 1.20325 V 143.533 Z"
     id="path1882"
     style="font-weight:bold;font-size:31.2845px;font-family:'Fira Code';-inkscape-font-specification:'Fira Code, Bold';fill:#d45500;fill-opacity:1;fill-rule:evenodd" />
  <path
     d="m 21.016777,154.68312 -0.60964,-8.96823 h 4.813 l -0.60965,8.96823 z"
     id="path1884"
     style="font-weight:bold;font-size:31.2845px;font-family:'Fira Code';-inkscape-font-specification:'Fira Code, Bold';fill:#d45500;fill-opacity:1;fill-rule:evenodd" />
  <path
     d="m 38.504027,166.49101 q 0,-0.97864 0.4813,-1.78081 0.4813,-0.81821 1.29951,-1.29951 0.81821,-0.49734 1.79685,-0.49734 0.99469,0 1.79686,0.49734 0.81821,0.4813 1.29951,1.29951 0.4813,0.80217 0.4813,1.78081 0,0.9626 -0.4813,1.78081 -0.4813,0.81821 -1.29951,1.29951 -0.80217,0.49734 -1.79686,0.49734 -0.97864,0 -1.79685,-0.49734 -0.81821,-0.4813 -1.29951,-1.29951 -0.4813,-0.81821 -0.4813,-1.78081 z"
     id="path1886"
     style="font-weight:bold;font-size:31.2845px;font-family:'Fira Code';-inkscape-font-specification:'Fira Code, Bold';fill:#d45500;fill-opacity:1;fill-rule:evenodd" />
  <path
     d="m 57.756047,166.49101 q 0,-0.97864 0.4813,-1.78081 0.4813,-0.81821 1.29951,-1.29951 0.81821,-0.49734 1.79685,-0.49734 0.99469,0 1.79685,0.49734 0.81821,0.4813 1.29951,1.29951 0.4813,0.80217 0.4813,1.78081 0,0.9626 -0.4813,1.78081 -0.4813,0.81821 -1.29951,1.29951 -0.80216,0.49734 -1.79685,0.49734 -0.97864,0 -1.79685,-0.49734 -0.81821,-0.4813 -1.29951,-1.29951 -0.4813,-0.81821 -0.4813,-1.78081 z"
     id="path1888"
     style="font-weight:bold;font-size:31.2845px;font-family:'Fira Code';-inkscape-font-specification:'Fira Code, Bold';fill:#d45500;fill-opacity:1;fill-rule:evenodd" />
  <path
     d="m 77.008057,166.49101 q 0,-0.97864 0.4813,-1.78081 0.4813,-0.81821 1.29951,-1.29951 0.81821,-0.49734 1.79685,-0.49734 0.99469,0 1.79686,0.49734 0.81821,0.4813 1.29951,1.29951 0.4813,0.80217 0.4813,1.78081 0,0.9626 -0.4813,1.78081 -0.4813,0.81821 -1.29951,1.29951 -0.80217,0.49734 -1.79686,0.49734 -0.97864,0 -1.79685,-0.49734 -0.81821,-0.4813 -1.29951,-1.29951 -0.4813,-0.81821 -0.4813,-1.78081 z"
     id="path1890"
     style="font-weight:bold;font-size:31.2845px;font-family:'Fira Code';-inkscape-font-specification:'Fira Code, Bold';fill:#d45500;fill-opacity:1;fill-rule:evenodd" />
  <path
     d="m 96.260067,166.49101 q 0,-0.97864 0.4813,-1.78081 0.4813,-0.81821 1.29951,-1.29951 0.81821,-0.49734 1.79686,-0.49734 0.994683,0 1.796853,0.49734 0.81821,0.4813 1.29951,1.29951 0.4813,0.80217 0.4813,1.78081 0,0.9626 -0.4813,1.78081 -0.4813,0.81821 -1.29951,1.29951 -0.80217,0.49734 -1.796853,0.49734 -0.97865,0 -1.79686,-0.49734 -0.81821,-0.4813 -1.29951,-1.29951 -0.4813,-0.81821 -0.4813,-1.78081 z"
     id="path1892"
     style="font-weight:bold;font-size:31.2845px;font-family:'Fira Code';-inkscape-font-specification:'Fira Code, Bold';fill:#d45500;fill-opacity:1;fill-rule:evenodd" />
  <path
     d="m 121.43208,143.533 v 29.3593 h -4.71674 V 143.533 Z"
     id="path1894"
     style="font-weight:bold;font-size:31.2845px;font-family:'Fira Code';-inkscape-font-specification:'Fira Code, Bold';fill:#d45500;fill-opacity:1;fill-rule:evenodd" />
  <path
     d="m 136.52887,154.68312 -0.60965,-8.96823 h 4.813 l -0.60964,8.96823 z"
     id="path1896"
     style="font-weight:bold;font-size:31.2845px;font-family:'Fira Code';-inkscape-font-specification:'Fira Code, Bold';fill:#d45500;fill-opacity:1;fill-rule:evenodd" />
  <path
     d="m 233.09376,143.533 v 29.3593 h -4.71674 V 143.533 Z m -11.5512,0 v 29.3593 h -4.71674 V 143.533 Z"
     id="path1898"
     style="font-weight:bold;font-size:31.2845px;font-family:'Fira Code';-inkscape-font-specification:'Fira Code, Bold';fill:#d45500;fill-opacity:1;fill-rule:evenodd" />
  <path
     d="m 269.5603,166.49101 q 0,-0.97864 0.4813,-1.78081 0.4813,-0.81821 1.29951,-1.29951 0.81821,-0.49734 1.79686,-0.49734 0.99468,0 1.81289,0.49734 0.80217,0.4813 1.28347,1.29951 0.4813,0.80217 0.4813,1.78081 0,0.9626 -0.4813,1.78081 -0.4813,0.81821 -1.28347,1.29951 -0.81821,0.49734 -1.81289,0.49734 -0.97865,0 -1.79686,-0.49734 -0.81821,-0.4813 -1.29951,-1.29951 -0.4813,-0.81821 -0.4813,-1.78081 z m 12.83467,0 q 0,-0.97864 0.4813,-1.78081 0.4813,-0.81821 1.29951,-1.29951 0.81821,-0.49734 1.79685,-0.49734 0.99469,0 1.79686,0.49734 0.81821,0.4813 1.29951,1.29951 0.4813,0.80217 0.4813,1.78081 0,0.9626 -0.4813,1.78081 -0.4813,0.81821 -1.29951,1.29951 -0.80217,0.49734 -1.79686,0.49734 -0.97864,0 -1.79685,-0.49734 -0.81821,-0.4813 -1.29951,-1.29951 -0.4813,-0.81821 -0.4813,-1.78081 z m -25.66933,0 q 0,-0.97864 0.4813,-1.78081 0.4813,-0.81821 1.29951,-1.29951 0.81821,-0.49734 1.79685,-0.49734 0.99469,0 1.8129,0.49734 0.80216,0.4813 1.28346,1.29951 0.4813,0.80217 0.4813,1.78081 0,0.9626 -0.4813,1.78081 -0.4813,0.81821 -1.28346,1.29951 -0.81821,0.49734 -1.8129,0.49734 -0.97864,0 -1.79685,-0.49734 -0.81821,-0.4813 -1.29951,-1.29951 -0.4813,-0.81821 -0.4813,-1.78081 z"
     id="path1900"
     style="font-weight:bold;font-size:31.2845px;font-family:'Fira Code';-inkscape-font-specification:'Fira Code, Bold';fill:#d45500;fill-opacity:1;fill-rule:evenodd" />
  <path
     d="m 309.797,154.68312 -0.60965,-8.96823 h 4.813 l -0.60965,8.96823 z"
     id="path1902"
     style="font-weight:bold;font-size:31.2845px;font-family:'Fira Code';-inkscape-font-specification:'Fira Code, Bold';fill:#d45500;fill-opacity:1;fill-rule:evenodd" />
  <path
     d="m 365.78827,166.49101 q 0,-0.97864 0.4813,-1.78081 0.4813,-0.81821 1.29951,-1.29951 0.81821,-0.49734 1.79686,-0.49734 0.99468,0 1.79685,0.49734 0.81821,0.4813 1.29951,1.29951 0.4813,0.80217 0.4813,1.78081 0,0.9626 -0.4813,1.78081 -0.4813,0.81821 -1.29951,1.29951 -0.80217,0.49734 -1.79685,0.49734 -0.97865,0 -1.79686,-0.49734 -0.81821,-0.4813 -1.29951,-1.29951 -0.4813,-0.81821 -0.4813,-1.78081 z"
     id="path1904"
     style="font-weight:bold;font-size:31.2845px;font-family:'Fira Code';-inkscape-font-specification:'Fira Code, Bold';fill:#d45500;fill-opacity:1;fill-rule:evenodd" />
  <path
     d="m 406.36189,143.533 v 29.3593 h -4.71674 V 143.533 Z m -11.5512,0 v 29.3593 h -4.71674 V 143.533 Z"
     id="path1906"
     style="font-weight:bold;font-size:31.2845px;font-family:'Fira Code';-inkscape-font-specification:'Fira Code, Bold';fill:#d45500;fill-opacity:1;fill-rule:evenodd" />
  <path
     d="m 423.54431,166.49101 q 0,-0.97864 0.4813,-1.78081 0.4813,-0.81821 1.29951,-1.29951 0.81821,-0.49734 1.79686,-0.49734 0.99468,0 1.79685,0.49734 0.81821,0.4813 1.29951,1.29951 0.4813,0.80217 0.4813,1.78081 0,0.9626 -0.4813,1.78081 -0.4813,0.81821 -1.29951,1.29951 -0.80217,0.49734 -1.79685,0.49734 -0.97865,0 -1.79686,-0.49734 -0.81821,-0.4813 -1.29951,-1.29951 -0.4813,-0.81821 -0.4813,-1.78081 z"
     id="path1908"
     style="font-weight:bold;font-size:31.2845px;font-family:'Fira Code';-inkscape-font-specification:'Fira Code, Bold';fill:#d45500;fill-opacity:1;fill-rule:evenodd" />
  <path
     d="m 483.06512,154.68312 -0.60964,-8.96823 h 4.813 l -0.60965,8.96823 z"
     id="path1910"
     style="font-weight:bold;font-size:31.2845px;font-family:'Fira Code';-inkscape-font-specification:'Fira Code, Bold';fill:#d45500;fill-opacity:1;fill-rule:evenodd" />
  <path
     d="m 506.47236,143.533 v 29.3593 h -4.71674 V 143.533 Z"
     id="path1912"
     style="font-weight:bold;font-size:31.2845px;font-family:'Fira Code';-inkscape-font-specification:'Fira Code, Bold';fill:#d45500;fill-opacity:1;fill-rule:evenodd" />
  <path
     d="m 539.0885,166.49101 q 0,-0.97864 0.4813,-1.78081 0.4813,-0.81821 1.29951,-1.29951 0.81821,-0.49734 1.79685,-0.49734 0.99469,0 1.8129,0.49734 0.80217,0.4813 1.28347,1.29951 0.4813,0.80217 0.4813,1.78081 0,0.9626 -0.4813,1.78081 -0.4813,0.81821 -1.28347,1.29951 -0.81821,0.49734 -1.8129,0.49734 -0.97864,0 -1.79685,-0.49734 -0.81821,-0.4813 -1.29951,-1.29951 -0.4813,-0.81821 -0.4813,-1.78081 z m 12.83467,0 q 0,-0.97864 0.4813,-1.78081 0.4813,-0.81821 1.29951,-1.29951 0.81821,-0.49734 1.79685,-0.49734 0.99469,0 1.79685,0.49734 0.81821,0.4813 1.29951,1.29951 0.4813,0.80217 0.4813,1.78081 0,0.9626 -0.4813,1.78081 -0.4813,0.81821 -1.29951,1.29951 -0.80216,0.49734 -1.79685,0.49734 -0.97864,0 -1.79685,-0.49734 -0.81821,-0.4813 -1.29951,-1.29951 -0.4813,-0.81821 -0.4813,-1.78081 z m -25.66934,0 q 0,-0.97864 0.4813,-1.78081 0.4813,-0.81821 1.29951,-1.29951 0.81821,-0.49734 1.79686,-0.49734 0.99468,0 1.81289,0.49734 0.80217,0.4813 1.28347,1.29951 0.4813,0.80217 0.4813,1.78081 0,0.9626 -0.4813,1.78081 -0.4813,0.81821 -1.28347,1.29951 -0.81821,0.49734 -1.81289,0.49734 -0.97865,0 -1.79686,-0.49734 -0.81821,-0.4813 -1.29951,-1.29951 -0.4813,-0.81821 -0.4813,-1.78081 z"
     id="path1914"
     style="font-weight:bold;font-size:31.2845px;font-family:'Fira Code';-inkscape-font-specification:'Fira Code, Bold';fill:#d45500;fill-opacity:1;fill-rule:evenodd" />
  <path
     d="m 579.32519,154.68312 -0.60964,-8.96823 h 4.813 l -0.60965,8.96823 z"
     id="path1916"
     style="font-weight:bold;font-size:31.2845px;font-family:'Fira Code';-inkscape-font-specification:'Fira Code, Bold';fill:#d45500;fill-opacity:1;fill-rule:evenodd" />
  <path
     d="m 637.08124,154.68312 -0.60965,-8.96823 h 4.813 l -0.60965,8.96823 z"
     id="path1918"
     style="font-weight:bold;font-size:31.2845px;font-family:'Fira Code';-inkscape-font-specification:'Fira Code, Bold';fill:#d45500;fill-opacity:1;fill-rule:evenodd" />
  <path
     d="m 660.48847,143.533 v 29.3593 h -4.71674 V 143.533 Z"
     id="path1920"
     style="font-weight:bold;font-size:31.2845px;font-family:'Fira Code';-inkscape-font-specification:'Fira Code, Bold';fill:#d45500;fill-opacity:1;fill-rule:evenodd" />
  <path
     d="m 693.10461,166.49101 q 0,-0.97864 0.4813,-1.78081 0.4813,-0.81821 1.29951,-1.29951 0.81821,-0.49734 1.79686,-0.49734 0.99468,0 1.81289,0.49734 0.80217,0.4813 1.28347,1.29951 0.4813,0.80217 0.4813,1.78081 0,0.9626 -0.4813,1.78081 -0.4813,0.81821 -1.28347,1.29951 -0.81821,0.49734 -1.81289,0.49734 -0.97865,0 -1.79686,-0.49734 -0.81821,-0.4813 -1.29951,-1.29951 -0.4813,-0.81821 -0.4813,-1.78081 z m 12.83467,0 q 0,-0.97864 0.4813,-1.78081 0.4813,-0.81821 1.29951,-1.29951 0.81821,-0.49734 1.79685,-0.49734 0.99469,0 1.79686,0.49734 0.81821,0.4813 1.29951,1.29951 0.4813,0.80217 0.4813,1.78081 0,0.9626 -0.4813,1.78081 -0.4813,0.81821 -1.29951,1.29951 -0.80217,0.49734 -1.79686,0.49734 -0.97864,0 -1.79685,-0.49734 -0.81821,-0.4813 -1.29951,-1.29951 -0.4813,-0.81821 -0.4813,-1.78081 z m -25.66933,0 q 0,-0.97864 0.4813,-1.78081 0.4813,-0.81821 1.29951,-1.29951 0.81821,-0.49734 1.79685,-0.49734 0.99469,0 1.8129,0.49734 0.80216,0.4813 1.28346,1.29951 0.4813,0.80217 0.4813,1.78081 0,0.9626 -0.4813,1.78081 -0.4813,0.81821 -1.28346,1.29951 -0.81821,0.49734 -1.8129,0.49734 -0.97864,0 -1.79685,-0.49734 -0.81821,-0.4813 -1.29951,-1.29951 -0.4813,-0.81821 -0.4813,-1.78081 z"
     id="path1922"
     style="font-weight:bold;font-size:31.2845px;font-family:'Fira Code';-inkscape-font-specification:'Fira Code, Bold';fill:#d45500;fill-opacity:1;fill-rule:evenodd" />
  <path
     d="m 733.34131,154.68312 -0.60965,-8.96823 h 4.813 l -0.60965,8.96823 z"
     id="path1924"
     style="font-weight:bold;font-size:31.2845px;font-family:'Fira Code';-inkscape-font-specification:'Fira Code, Bold';fill:#d45500;fill-opacity:1;fill-rule:evenodd" />
  <path
     d="m 791.09735,154.68312 -0.60965,-8.96823 h 4.813 l -0.60964,8.96823 z"
     id="path1926"
     style="font-weight:bold;font-size:31.2845px;font-family:'Fira Code';-inkscape-font-specification:'Fira Code, Bold';fill:#d45500;fill-opacity:1;fill-rule:evenodd" />
  <path
     d="m 810.34936,154.68312 -0.60964,-8.96823 h 4.813 l -0.60965,8.96823 z"
     id="path1928"
     style="font-weight:bold;font-size:31.2845px;font-family:'Fira Code';-inkscape-font-specification:'Fira Code, Bold';fill:#d45500;fill-opacity:1;fill-rule:evenodd" />
  <path
     d="m 833.7566,143.533 v 29.3593 h -4.71674 V 143.533 Z"
     id="path1930"
     style="font-weight:bold;font-size:31.2845px;font-family:'Fira Code';-inkscape-font-specification:'Fira Code, Bold';fill:#d45500;fill-opacity:1;fill-rule:evenodd" />
  <path
     d="m 866.37274,166.49101 q 0,-0.97864 0.4813,-1.78081 0.4813,-0.81821 1.29951,-1.29951 0.81821,-0.49734 1.79685,-0.49734 0.99469,0 1.8129,0.49734 0.80217,0.4813 1.28347,1.29951 0.4813,0.80217 0.4813,1.78081 0,0.9626 -0.4813,1.78081 -0.4813,0.81821 -1.28347,1.29951 -0.81821,0.49734 -1.8129,0.49734 -0.97864,0 -1.79685,-0.49734 -0.81821,-0.4813 -1.29951,-1.29951 -0.4813,-0.81821 -0.4813,-1.78081 z m 12.83467,0 q 0,-0.97864 0.4813,-1.78081 0.4813,-0.81821 1.29951,-1.29951 0.81821,-0.49734 1.79685,-0.49734 0.99469,0 1.79685,0.49734 0.81821,0.4813 1.29951,1.29951 0.4813,0.80217 0.4813,1.78081 0,0.9626 -0.4813,1.78081 -0.4813,0.81821 -1.29951,1.29951 -0.80216,0.49734 -1.79685,0.49734 -0.97864,0 -1.79685,-0.49734 -0.81821,-0.4813 -1.29951,-1.29951 -0.4813,-0.81821 -0.4813,-1.78081 z m -25.66934,0 q 0,-0.97864 0.4813,-1.78081 0.4813,-0.81821 1.29951,-1.29951 0.81821,-0.49734 1.79686,-0.49734 0.99468,0 1.81289,0.49734 0.80217,0.4813 1.28347,1.29951 0.4813,0.80217 0.4813,1.78081 0,0.9626 -0.4813,1.78081 -0.4813,0.81821 -1.28347,1.29951 -0.81821,0.49734 -1.81289,0.49734 -0.97865,0 -1.79686,-0.49734 -0.81821,-0.4813 -1.29951,-1.29951 -0.4813,-0.81821 -0.4813,-1.78081 z"
     id="path1932"
     style="font-weight:bold;font-size:31.2845px;font-family:'Fira Code';-inkscape-font-specification:'Fira Code, Bold';fill:#d45500;fill-opacity:1;fill-rule:evenodd" />
  <path
     d="m 906.60944,154.68312 -0.60965,-8.96823 h 4.813 l -0.60965,8.96823 z"
     id="path1934"
     style="font-weight:bold;font-size:31.2845px;font-family:'Fira Code';-inkscape-font-specification:'Fira Code, Bold';fill:#d45500;fill-opacity:1;fill-rule:evenodd" />
  <path
     d="m 930.01671,143.533 v 29.3593 h -4.7168 V 143.533 Z"
     id="path1936"
     style="font-weight:bold;font-size:31.2845px;font-family:'Fira Code';-inkscape-font-specification:'Fira Code, Bold';fill:#d45500;fill-opacity:1;fill-rule:evenodd" />
  <path
     d="m 1002.8695,154.68312 -0.6097,-8.96823 h 4.813 l -0.6096,8.96823 z"
     id="path1938"
     style="font-weight:bold;font-size:31.2845px;font-family:'Fira Code';-inkscape-font-specification:'Fira Code, Bold';fill:#d45500;fill-opacity:1;fill-rule:evenodd" />
  <path
     d="m 1026.2767,143.533 v 29.3593 h -4.7168 V 143.533 Z"
     id="path1940"
     style="font-weight:bold;font-size:31.2845px;font-family:'Fira Code';-inkscape-font-specification:'Fira Code, Bold';fill:#d45500;fill-opacity:1;fill-rule:evenodd" />
  <path
     d="m 1058.8929,166.49101 q 0,-0.97864 0.4813,-1.78081 0.4813,-0.81821 1.2995,-1.29951 0.8182,-0.49734 1.7968,-0.49734 0.9947,0 1.8129,0.49734 0.8022,0.4813 1.2835,1.29951 0.4813,0.80217 0.4813,1.78081 0,0.9626 -0.4813,1.78081 -0.4813,0.81821 -1.2835,1.29951 -0.8182,0.49734 -1.8129,0.49734 -0.9786,0 -1.7968,-0.49734 -0.8182,-0.4813 -1.2995,-1.29951 -0.4813,-0.81821 -0.4813,-1.78081 z m 12.8346,0 q 0,-0.97864 0.4813,-1.78081 0.4813,-0.81821 1.2995,-1.29951 0.8183,-0.49734 1.7969,-0.49734 0.9947,0 1.7969,0.49734 0.8182,0.4813 1.2995,1.29951 0.4813,0.80217 0.4813,1.78081 0,0.9626 -0.4813,1.78081 -0.4813,0.81821 -1.2995,1.29951 -0.8022,0.49734 -1.7969,0.49734 -0.9786,0 -1.7969,-0.49734 -0.8182,-0.4813 -1.2995,-1.29951 -0.4813,-0.81821 -0.4813,-1.78081 z m -25.6693,0 q 0,-0.97864 0.4813,-1.78081 0.4813,-0.81821 1.2995,-1.29951 0.8182,-0.49734 1.7969,-0.49734 0.9947,0 1.8129,0.49734 0.8021,0.4813 1.2834,1.29951 0.4813,0.80217 0.4813,1.78081 0,0.9626 -0.4813,1.78081 -0.4813,0.81821 -1.2834,1.29951 -0.8182,0.49734 -1.8129,0.49734 -0.9787,0 -1.7969,-0.49734 -0.8182,-0.4813 -1.2995,-1.29951 -0.4813,-0.81821 -0.4813,-1.78081 z"
     id="path1942"
     style="font-weight:bold;font-size:31.2845px;font-family:'Fira Code';-inkscape-font-specification:'Fira Code, Bold';fill:#d45500;fill-opacity:1;fill-rule:evenodd" />
  <path
     d="m 1099.1295,154.68312 -0.6096,-8.96823 h 4.813 l -0.6097,8.96823 z"
     id="path1944"
     style="font-weight:bold;font-size:31.2845px;font-family:'Fira Code';-inkscape-font-specification:'Fira Code, Bold';fill:#d45500;fill-opacity:1;fill-rule:evenodd" />
  <path
     d="m 1135.8689,166.49101 q 0,-0.97864 0.4813,-1.78081 0.4813,-0.81821 1.2995,-1.29951 0.8182,-0.49734 1.7969,-0.49734 0.9946,0 1.7968,0.49734 0.8182,0.4813 1.2995,1.29951 0.4813,0.80217 0.4813,1.78081 0,0.9626 -0.4813,1.78081 -0.4813,0.81821 -1.2995,1.29951 -0.8022,0.49734 -1.7968,0.49734 -0.9787,0 -1.7969,-0.49734 -0.8182,-0.4813 -1.2995,-1.29951 -0.4813,-0.81821 -0.4813,-1.78081 z"
     id="path1946"
     style="font-weight:bold;font-size:31.2845px;font-family:'Fira Code';-inkscape-font-specification:'Fira Code, Bold';fill:#d45500;fill-opacity:1;fill-rule:evenodd" />
  <path
     d="m 1176.4424,143.533 v 29.3593 h -4.7168 V 143.533 Z m -11.5512,0 v 29.3593 h -4.7168 V 143.533 Z"
     id="path1948"
     style="font-weight:bold;font-size:31.2845px;font-family:'Fira Code';-inkscape-font-specification:'Fira Code, Bold';fill:#d45500;fill-opacity:1;fill-rule:evenodd" />
  <path
     d="m 1193.6249,166.49101 q 0,-0.97864 0.4813,-1.78081 0.4813,-0.81821 1.2995,-1.29951 0.8182,-0.49734 1.7968,-0.49734 0.9947,0 1.7969,0.49734 0.8182,0.4813 1.2995,1.29951 0.4813,0.80217 0.4813,1.78081 0,0.9626 -0.4813,1.78081 -0.4813,0.81821 -1.2995,1.29951 -0.8022,0.49734 -1.7969,0.49734 -0.9786,0 -1.7968,-0.49734 -0.8182,-0.4813 -1.2995,-1.29951 -0.4813,-0.81821 -0.4813,-1.78081 z"
     id="path1950"
     style="font-weight:bold;font-size:31.2845px;font-family:'Fira Code';-inkscape-font-specification:'Fira Code, Bold';fill:#d45500;fill-opacity:1;fill-rule:evenodd" />
  <path
     d="m 1253.4504,143.533 v 29.3593 h -4.7167 V 143.533 Z m -11.5512,0 v 29.3593 h -4.7167 V 143.533 Z"
     id="path1952"
     style="font-weight:bold;font-size:31.2845px;font-family:'Fira Code';-inkscape-font-specification:'Fira Code, Bold';fill:#d45500;fill-opacity:1;fill-rule:evenodd" />
  <path
     d="m 1270.6329,166.49101 q 0,-0.97864 0.4813,-1.78081 0.4813,-0.81821 1.2995,-1.29951 0.8182,-0.49734 1.7969,-0.49734 0.9947,0 1.7968,0.49734 0.8183,0.4813 1.2996,1.29951 0.4813,0.80217 0.4813,1.78081 0,0.9626 -0.4813,1.78081 -0.4813,0.81821 -1.2996,1.29951 -0.8021,0.49734 -1.7968,0.49734 -0.9787,0 -1.7969,-0.49734 -0.8182,-0.4813 -1.2995,-1.29951 -0.4813,-0.81821 -0.4813,-1.78081 z"
     id="path1954"
     style="font-weight:bold;font-size:31.2845px;font-family:'Fira Code';-inkscape-font-specification:'Fira Code, Bold';fill:#d45500;fill-opacity:1;fill-rule:evenodd" />
  <path
     d="m 1347.641,166.49101 q 0,-0.97864 0.4813,-1.78081 0.4813,-0.81821 1.2995,-1.29951 0.8182,-0.49734 1.7968,-0.49734 0.9947,0 1.7969,0.49734 0.8182,0.4813 1.2995,1.29951 0.4813,0.80217 0.4813,1.78081 0,0.9626 -0.4813,1.78081 -0.4813,0.81821 -1.2995,1.29951 -0.8022,0.49734 -1.7969,0.49734 -0.9786,0 -1.7968,-0.49734 -0.8182,-0.4813 -1.2995,-1.29951 -0.4813,-0.81821 -0.4813,-1.78081 z"
     id="path1956"
     style="font-weight:bold;font-size:31.2845px;font-family:'Fira Code';-inkscape-font-specification:'Fira Code, Bold';fill:#d45500;fill-opacity:1;fill-rule:evenodd" />
  <path
     d="m 1388.2146,143.533 v 29.3593 h -4.7167 V 143.533 Z m -11.5512,0 v 29.3593 h -4.7167 V 143.533 Z"
     id="path1958"
     style="font-weight:bold;font-size:31.2845px;font-family:'Fira Code';-inkscape-font-specification:'Fira Code, Bold';fill:#d45500;fill-opacity:1;fill-rule:evenodd" />
  <path
     d="m 1405.397,166.49101 q 0,-0.97864 0.4813,-1.78081 0.4813,-0.81821 1.2995,-1.29951 0.8182,-0.49734 1.7968,-0.49734 0.9947,0 1.7969,0.49734 0.8182,0.4813 1.2995,1.29951 0.4813,0.80217 0.4813,1.78081 0,0.9626 -0.4813,1.78081 -0.4813,0.81821 -1.2995,1.29951 -0.8022,0.49734 -1.7969,0.49734 -0.9786,0 -1.7968,-0.49734 -0.8182,-0.4813 -1.2995,-1.29951 -0.4813,-0.81821 -0.4813,-1.78081 z"
     id="path1960"
     style="font-weight:bold;font-size:31.2845px;font-family:'Fira Code';-inkscape-font-specification:'Fira Code, Bold';fill:#d45500;fill-opacity:1;fill-rule:evenodd" />
  <path
     d="m 1503.4219,154.68312 -0.6097,-8.96823 h 4.813 l -0.6096,8.96823 z"
     id="path1962"
     style="font-weight:bold;font-size:31.2845px;font-family:'Fira Code';-inkscape-font-specification:'Fira Code, Bold';fill:#d45500;fill-opacity:1;fill-rule:evenodd" />
  <path
     d="m 1526.8292,143.533 v 29.3593 h -4.7168 V 143.533 Z"
     id="path1964"
     style="font-weight:bold;font-size:31.2845px;font-family:'Fira Code';-inkscape-font-specification:'Fira Code, Bold';fill:#d45500;fill-opacity:1;fill-rule:evenodd" />
  <path
     d="m 1559.4452,166.49101 q 0,-0.97864 0.4813,-1.78081 0.4813,-0.81821 1.2996,-1.29951 0.8182,-0.49734 1.7968,-0.49734 0.9947,0 1.8129,0.49734 0.8022,0.4813 1.2835,1.29951 0.4813,0.80217 0.4813,1.78081 0,0.9626 -0.4813,1.78081 -0.4813,0.81821 -1.2835,1.29951 -0.8182,0.49734 -1.8129,0.49734 -0.9786,0 -1.7968,-0.49734 -0.8183,-0.4813 -1.2996,-1.29951 -0.4813,-0.81821 -0.4813,-1.78081 z m 12.8347,0 q 0,-0.97864 0.4813,-1.78081 0.4813,-0.81821 1.2995,-1.29951 0.8182,-0.49734 1.7969,-0.49734 0.9947,0 1.7968,0.49734 0.8182,0.4813 1.2995,1.29951 0.4813,0.80217 0.4813,1.78081 0,0.9626 -0.4813,1.78081 -0.4813,0.81821 -1.2995,1.29951 -0.8021,0.49734 -1.7968,0.49734 -0.9787,0 -1.7969,-0.49734 -0.8182,-0.4813 -1.2995,-1.29951 -0.4813,-0.81821 -0.4813,-1.78081 z m -25.6693,0 q 0,-0.97864 0.4813,-1.78081 0.4813,-0.81821 1.2995,-1.29951 0.8182,-0.49734 1.7968,-0.49734 0.9947,0 1.8129,0.49734 0.8022,0.4813 1.2835,1.29951 0.4813,0.80217 0.4813,1.78081 0,0.9626 -0.4813,1.78081 -0.4813,0.81821 -1.2835,1.29951 -0.8182,0.49734 -1.8129,0.49734 -0.9786,0 -1.7968,-0.49734 -0.8182,-0.4813 -1.2995,-1.29951 -0.4813,-0.81821 -0.4813,-1.78081 z"
     id="path1966"
     style="font-weight:bold;font-size:31.2845px;font-family:'Fira Code';-inkscape-font-specification:'Fira Code, Bold';fill:#d45500;fill-opacity:1;fill-rule:evenodd" />
  <path
     d="m 1599.682,154.68312 -0.6097,-8.96823 h 4.813 l -0.6096,8.96823 z"
     id="path1968"
     style="font-weight:bold;font-size:31.2845px;font-family:'Fira Code';-inkscape-font-specification:'Fira Code, Bold';fill:#d45500;fill-opacity:1;fill-rule:evenodd" />
  <path
     d="m 1636.4211,166.49101 q 0,-0.97864 0.4813,-1.78081 0.4813,-0.81821 1.2995,-1.29951 0.8183,-0.49734 1.7969,-0.49734 0.9947,0 1.7969,0.49734 0.8182,0.4813 1.2995,1.29951 0.4813,0.80217 0.4813,1.78081 0,0.9626 -0.4813,1.78081 -0.4813,0.81821 -1.2995,1.29951 -0.8022,0.49734 -1.7969,0.49734 -0.9786,0 -1.7969,-0.49734 -0.8182,-0.4813 -1.2995,-1.29951 -0.4813,-0.81821 -0.4813,-1.78081 z"
     id="path1970"
     style="font-weight:bold;font-size:31.2845px;font-family:'Fira Code';-inkscape-font-specification:'Fira Code, Bold';fill:#d45500;fill-opacity:1;fill-rule:evenodd" />
  <path
     d="m 1676.9949,143.533 v 29.3593 h -4.7168 V 143.533 Z m -11.5512,0 v 29.3593 h -4.7168 V 143.533 Z"
     id="path1972"
     style="font-weight:bold;font-size:31.2845px;font-family:'Fira Code';-inkscape-font-specification:'Fira Code, Bold';fill:#d45500;fill-opacity:1;fill-rule:evenodd" />
  <path
     d="m 1694.1772,166.49101 q 0,-0.97864 0.4813,-1.78081 0.4813,-0.81821 1.2995,-1.29951 0.8183,-0.49734 1.7969,-0.49734 0.9947,0 1.7969,0.49734 0.8182,0.4813 1.2995,1.29951 0.4813,0.80217 0.4813,1.78081 0,0.9626 -0.4813,1.78081 -0.4813,0.81821 -1.2995,1.29951 -0.8022,0.49734 -1.7969,0.49734 -0.9786,0 -1.7969,-0.49734 -0.8182,-0.4813 -1.2995,-1.29951 -0.4813,-0.81821 -0.4813,-1.78081 z"
     id="path1974"
     style="font-weight:bold;font-size:31.2845px;font-family:'Fira Code';-inkscape-font-specification:'Fira Code, Bold';fill:#d45500;fill-opacity:1;fill-rule:evenodd" />
  <path
     d="m 233.09376,179.417 v 29.3593 h -4.71674 V 179.417 Z m -11.5512,0 v 29.3593 h -4.71674 V 179.417 Z"
     id="path1977"
     style="font-weight:bold;font-size:31.2845px;font-family:'Fira Code';-inkscape-font-specification:'Fira Code, Bold';fill:#d45500;fill-opacity:1;fill-rule:evenodd" />
  <path
     d="m 194.28491,226.45012 -0.60965,-8.96823 h 4.813 l -0.60964,8.96823 z"
     id="path1980"
     style="font-weight:bold;font-size:31.2845px;font-family:'Fira Code';-inkscape-font-specification:'Fira Code, Bold';fill:#d45500;fill-opacity:1;fill-rule:evenodd" />
  <path
     d="m 213.53693,226.45012 -0.60965,-8.96823 h 4.813 l -0.60965,8.96823 z"
     id="path1982"
     style="font-weight:bold;font-size:31.2845px;font-family:'Fira Code';-inkscape-font-specification:'Fira Code, Bold';fill:#d45500;fill-opacity:1;fill-rule:evenodd" />
  <path
     d="m 232.78894,226.45012 -0.60965,-8.96823 h 4.813 l -0.60964,8.96823 z"
     id="path1984"
     style="font-weight:bold;font-size:31.2845px;font-family:'Fira Code';-inkscape-font-specification:'Fira Code, Bold';fill:#d45500;fill-opacity:1;fill-rule:evenodd" />
  <path
     d="m 252.04095,226.45012 -0.60964,-8.96823 h 4.813 l -0.60965,8.96823 z"
     id="path1986"
     style="font-weight:bold;font-size:31.2845px;font-family:'Fira Code';-inkscape-font-specification:'Fira Code, Bold';fill:#d45500;fill-opacity:1;fill-rule:evenodd" />
</svg>
